<?xml version="1.0" encoding="UTF-8"?>
<svg version="1.1" xmlns="http://www.w3.org/2000/svg" width="1024" height="1024">
<path d="M0 0 C337.92 0 675.84 0 1024 0 C1024 337.92 1024 675.84 1024 1024 C686.08 1024 348.16 1024 0 1024 C0 686.08 0 348.16 0 0 Z " fill="#FEFEFE" transform="translate(0,0)"/>
<path d="M0 0 C4.34784255 2.47940694 7.97543078 5.46344617 11.625 8.875 C12.47771484 8.06095703 12.47771484 8.06095703 13.34765625 7.23046875 C20.9223827 0.21214959 26.71958184 -2.90661761 37.2265625 -2.58203125 C48.90019703 -1.01212868 57.4373676 7.10337616 64.625 15.875 C76.62192026 32.09061749 79.8059238 53.34337803 76.953125 72.984375 C76.25962475 77.29776183 75.46728755 81.58835801 74.625 85.875 C75.53378906 85.28332031 76.44257812 84.69164062 77.37890625 84.08203125 C95.93475323 72.29891885 117.01706141 66.48917929 139.0078125 71.1875 C151.84165799 74.55877881 163.86750454 80.75231502 171.0625 92.375 C174.64127568 100.35365573 173.56724621 110.20140315 170.625 118.1875 C170.25375 119.04988281 169.8825 119.91226563 169.5 120.80078125 C168.49544084 122.80692066 168.49544084 122.80692066 168.625 124.875 C170.41520819 126.18425737 170.41520819 126.18425737 172.6875 127.5 C178.46351415 131.23527729 182.96491695 135.5548339 186.0625 141.75 C188.39437114 154.70483967 183.9792863 165.27565692 176.625 175.875 C172.3211046 181.55614193 167.52752929 185.91109959 161.625 189.875 C160.93277344 190.36742187 160.24054688 190.85984375 159.52734375 191.3671875 C145.53097703 200.63407868 128.96015199 203.03850362 112.625 204.875 C113.14658691 205.31948486 113.66817383 205.76396973 114.20556641 206.22192383 C129.79739292 219.57726826 142.67390374 235.87013841 145.625 256.875 C146.53235581 269.35338832 146.22488099 281.4180209 138.625 291.875 C133.87943482 296.82812469 129.70671059 300.69444297 122.69140625 301.10546875 C121.19004109 301.10150038 119.68867281 301.0868572 118.1875 301.0625 C117.43662109 301.06185547 116.68574219 301.06121094 115.91210938 301.06054688 C112.02441402 301.02977356 108.4206843 300.81826151 104.625 299.875 C104.5321875 301.545625 104.5321875 301.545625 104.4375 303.25 C103.42283222 311.08935104 99.73081593 317.61527504 93.6640625 322.62109375 C87.96875119 326.12338289 83.18073472 327.40918879 76.5 327.3125 C75.38794189 327.30114014 75.38794189 327.30114014 74.25341797 327.28955078 C60.88040792 326.89529591 48.84025364 321.3390673 38.625 312.875 C48.1569223 333.04221823 60.96860531 350.51992803 75.55859375 367.328125 C85.89743302 379.2521865 95.11306572 391.57901976 103.625 404.875 C103.66463867 404.24746826 103.70427734 403.61993652 103.74511719 402.97338867 C105.27080171 379.83735219 107.0636069 354.76561554 123.625 336.875 C124.22957031 336.19179688 124.83414062 335.50859375 125.45703125 334.8046875 C130.51740401 329.3835957 136.21594705 325.55410374 142.625 321.875 C143.40488281 321.42253906 144.18476562 320.97007812 144.98828125 320.50390625 C155.78616519 314.67849323 168.56291255 310.7531652 180.82421875 310.7421875 C181.50047806 310.74123077 182.17673737 310.74027405 182.87348938 310.73928833 C184.29464817 310.73861094 185.71581013 310.74043434 187.13696289 310.74462891 C189.31598794 310.75000861 191.49480922 310.74465623 193.67382812 310.73828125 C195.05729212 310.73894162 196.44075599 310.74022193 197.82421875 310.7421875 C199.70886841 310.74387939 199.70886841 310.74387939 201.6315918 310.74560547 C204.625 310.875 204.625 310.875 206.625 311.875 C208.37550368 337.1989533 198.70475804 361.74215759 182.76953125 381.1328125 C168.91206945 396.2016942 147.70058752 403.93395683 127.625 404.875 C123.95635209 404.94051157 120.29360395 404.93777079 116.625 404.875 C115.09306128 415.87036659 114.10069046 427.25629775 117.95703125 437.84765625 C118.85061666 440.55976635 118.84823694 443.0473321 118.625 445.875 C119.17285156 446.11992188 119.72070312 446.36484375 120.28515625 446.6171875 C123.13499415 448.14915378 125.51388326 450.00307586 128.0625 452 C129.21171166 452.89520938 130.36149418 453.7896862 131.51171875 454.68359375 C132.15415527 455.18358887 132.7965918 455.68358398 133.45849609 456.19873047 C138.62065286 460.19279947 143.82875796 464.12730914 149.02514648 468.07666016 C151.56097027 470.00613817 154.09352377 471.93982264 156.625 473.875 C157.45717041 474.50792969 158.28934082 475.14085937 159.14672852 475.79296875 C159.94006592 476.40140625 160.73340332 477.00984375 161.55078125 477.63671875 C162.25372314 478.17385498 162.95666504 478.71099121 163.6809082 479.2644043 C168.97692536 483.65192473 173.04867434 488.4520356 173.9609375 495.453125 C174.07231969 503.07166674 173.02928752 509.07933019 167.82421875 514.8828125 C162.68356529 519.65413745 157.46254356 522.91109405 150.3125 523.3125 C140.99548253 522.94805884 134.97087529 518.38440647 127.625 512.875 C127.295 540.595 126.965 568.315 126.625 596.875 C151.99959789 584.79185815 174.66808089 571.39967209 195.625 552.875 C196.42550781 552.18535156 197.22601562 551.49570312 198.05078125 550.78515625 C210.16479177 540.17776217 221.87707314 528.71330222 231.625 515.875 C232.55170476 514.6885063 233.47881655 513.50233044 234.40625 512.31640625 C261.4055369 477.4313198 280.03393074 437.19092036 288.625 393.875 C288.81964844 392.96137695 289.01429688 392.04775391 289.21484375 391.10644531 C292.53841147 375.09141066 292.996634 359.29495475 293 343 C293.00190338 342.01147034 293.00380676 341.02294067 293.00576782 340.00445557 C293.00124531 319.24700252 291.31916407 299.11577871 286.625 278.875 C286.44598145 278.09979004 286.26696289 277.32458008 286.08251953 276.52587891 C276.43111141 235.63869141 257.76680899 197.93571288 230.625 165.875 C230.15803711 165.31780273 229.69107422 164.76060547 229.20996094 164.18652344 C220.48418654 153.77812414 211.63622364 144.2382388 200.91015625 135.8203125 C198.625 133.875 198.625 133.875 196.625 130.875 C196.98388035 127.91423709 197.47158021 127.02841979 199.625 124.875 C204.99550754 124.77217732 207.58109476 127.22616579 211.24023438 130.74414062 C211.88283203 131.38544922 212.52542969 132.02675781 213.1875 132.6875 C214.47899929 133.94552075 215.77193652 135.20206721 217.06640625 136.45703125 C217.67661621 137.05290039 218.28682617 137.64876953 218.91552734 138.26269531 C221.04596193 140.27203407 223.33269692 142.05475933 225.625 143.875 C226.7439587 145.05041992 227.82933146 146.25892875 228.875 147.5 C231.45422857 150.52851355 234.10203374 153.46357692 236.8125 156.375 C247.95233082 168.77986246 257.02351668 182.63784947 265.625 196.875 C266.0281543 197.5340332 266.43130859 198.19306641 266.84667969 198.87207031 C284.26577545 227.54749565 294.48066217 260.064236 300.625 292.875 C300.80289063 293.78378906 300.98078125 294.69257813 301.1640625 295.62890625 C306.7084195 325.1548074 306.148408 359.39647998 300.625 388.875 C300.35091309 390.40737305 300.35091309 390.40737305 300.07128906 391.97070312 C291.10936773 440.67999642 269.90043793 485.5753699 238.625 523.875 C238.19735352 524.40706055 237.76970703 524.93912109 237.32910156 525.48730469 C230.5702563 533.86295169 223.14554253 541.56049734 215.5625 549.1875 C214.65266357 550.10660156 213.74282715 551.02570312 212.80541992 551.97265625 C206.71922981 558.03094061 200.35675388 563.54802828 193.625 568.875 C192.54126136 569.75601208 191.45784412 570.63741996 190.375 571.51953125 C161.43163747 594.33709688 127.68811717 610.08682908 92.625 620.875 C91.81724121 621.12620605 91.00948242 621.37741211 90.17724609 621.63623047 C81.42689883 624.32419687 72.62405187 626.38803861 63.625 628.0625 C62.38145752 628.29501465 62.38145752 628.29501465 61.11279297 628.53222656 C45.11817548 631.34345744 29.33796011 632.25146993 13.125 632.1875 C11.68066589 632.18476578 11.68066589 632.18476578 10.20715332 632.18197632 C-5.1693798 632.13311494 -20.19180578 631.50385571 -35.375 628.875 C-36.84743164 628.62556641 -36.84743164 628.62556641 -38.34960938 628.37109375 C-62.28026734 624.17818158 -85.16694469 616.63503069 -107.375 606.875 C-108.11476074 606.55595703 -108.85452148 606.23691406 -109.61669922 605.90820312 C-132.64320624 595.91825786 -154.15673951 581.97596785 -173.375 565.875 C-174.36886719 565.06546875 -175.36273438 564.2559375 -176.38671875 563.421875 C-190.94541357 551.40329044 -204.98016306 537.95981469 -216.375 522.875 C-217.14199219 521.91335938 -217.90898437 520.95171875 -218.69921875 519.9609375 C-247.29358737 483.99121726 -267.7433774 441.07936786 -276.375 395.875 C-276.66479736 394.46178467 -276.66479736 394.46178467 -276.96044922 393.02001953 C-283.63808967 359.34835825 -283.83763914 320.3853949 -276.375 286.875 C-276.16601074 285.86373047 -275.95702148 284.85246094 -275.74169922 283.81054688 C-265.61799725 235.06511147 -243.57539092 187.9921062 -209.0625 151.7109375 C-206.82876797 149.35383073 -204.67667631 146.96339294 -202.5625 144.5 C-197.65349229 138.86111584 -192.40063858 133.77575491 -186.75 128.875 C-185.40035156 127.699375 -185.40035156 127.699375 -184.0234375 126.5 C-181.375 124.875 -181.375 124.875 -178.6640625 125 C-176.375 125.875 -176.375 125.875 -174.375 127.875 C-174.29455133 130.69070362 -174.93680064 132.34434818 -176.7265625 134.51171875 C-179.7163577 137.54929607 -182.89818119 140.34394791 -186.125 143.125 C-195.13264097 150.93046065 -203.03866816 159.49369762 -210.375 168.875 C-211.17679687 169.88304687 -211.97859375 170.89109375 -212.8046875 171.9296875 C-258.49289104 229.8288255 -276.43040037 303.49143692 -268.34375 376.2578125 C-262.37930271 425.36591673 -242.57940925 473.38611773 -211.375 511.875 C-210.26898438 513.26912109 -210.26898438 513.26912109 -209.140625 514.69140625 C-196.2333713 530.77970297 -181.7260604 546.25931115 -165.375 558.875 C-163.90546875 560.05255859 -163.90546875 560.05255859 -162.40625 561.25390625 C-150.52674362 570.70868125 -137.71525478 578.63623249 -124.5625 586.1875 C-123.72783203 586.66687012 -122.89316406 587.14624023 -122.03320312 587.64013672 C-115.57294436 591.2996833 -109.03932523 594.54283739 -102.375 597.875 C-102.375 569.495 -102.375 541.115 -102.375 511.875 C-106.665 514.845 -110.955 517.815 -115.375 520.875 C-125.2392425 523.693355 -130.54602418 523.72161629 -139.375 518.875 C-144.81105323 515.66278673 -147.41476586 510.73963492 -149.375 504.875 C-150.35723154 498.28727467 -149.93826136 492.57778941 -146.73828125 486.69140625 C-139.29802451 476.7781702 -127.74969787 469.61966456 -117.83935547 462.38110352 C-112.274472 458.30609557 -106.80003082 454.13406476 -101.375 449.875 C-95.28593136 445.09725888 -89.12373739 440.44189976 -82.875 435.875 C-75.79993749 430.70306493 -68.84659753 425.39839115 -61.94677734 419.99536133 C-54.5065958 414.17549691 -46.95038684 408.51705208 -39.375 402.875 C-33.6531391 398.60461249 -27.94662242 394.31769133 -22.28125 389.97265625 C-20.90199341 388.91643066 -20.90199341 388.91643066 -19.49487305 387.83886719 C-17.66894775 386.43961041 -15.84479238 385.03803995 -14.02270508 383.63378906 C4.85604411 369.17256425 4.85604411 369.17256425 14.05615234 369.52294922 C22.5992283 370.69374522 29.94382776 377.07622518 36.5 382.25 C38.34702124 383.68311046 40.19469365 385.115382 42.04296875 386.546875 C42.97157715 387.26939453 43.90018555 387.99191406 44.85693359 388.73632812 C49.13670706 392.0429797 53.47483717 395.26991598 57.8125 398.5 C65.06765663 403.91961769 72.24214966 409.43370179 79.37719727 415.01025391 C85.40009919 419.71431656 91.49100234 424.31645158 97.625 428.875 C99.20892526 430.06171036 100.79232866 431.24911786 102.375 432.4375 C103.00921875 432.91316406 103.6434375 433.38882812 104.296875 433.87890625 C104.73515625 434.20761719 105.1734375 434.53632813 105.625 434.875 C101.46688899 414.99253816 86.21955638 396.81792778 73.203125 381.84375 C70.05628167 378.22011223 67.0149396 374.52031253 63.9921875 370.79296875 C62.27913814 368.6813386 60.55507506 366.58185895 58.8203125 364.48828125 C36.52159671 337.3775253 21.63533285 307.39444789 11.625 273.875 C10.05129441 276.23555839 8.78239634 278.44934871 7.5234375 280.97265625 C2.96212139 289.97695458 -1.45624525 298.41617367 -8.375 305.875 C-8.92414063 306.50277344 -9.47328125 307.13054687 -10.0390625 307.77734375 C-19.58003685 318.10963114 -35.2959934 326.32807558 -49.42578125 327.24609375 C-59.04163502 327.52303391 -66.76570588 327.05657017 -74.16796875 320.21875 C-78.92890106 314.67020666 -80.57289627 307.82900026 -82.375 300.875 C-83.26638672 300.91427612 -83.26638672 300.91427612 -84.17578125 300.9543457 C-86.90857742 301.05926935 -89.64094858 301.12362029 -92.375 301.1875 C-93.30957031 301.22939453 -94.24414062 301.27128906 -95.20703125 301.31445312 C-102.89720988 301.44889681 -107.55182202 299.4679045 -113.13012695 294.22558594 C-121.46990049 285.64473125 -122.72171423 274.07184112 -122.578125 262.64453125 C-121.32928223 239.46889137 -108.80164592 222.16053805 -92.375 206.875 C-91.385 206.215 -90.395 205.555 -89.375 204.875 C-90.95474609 204.72804688 -90.95474609 204.72804688 -92.56640625 204.578125 C-115.76626507 202.25299022 -137.79584568 195.31988853 -153.0390625 176.73828125 C-159.74117007 167.98970836 -164.36707276 157.49374168 -163.8203125 146.28515625 C-162.33484565 138.24539269 -157.97976642 132.45450623 -151.375 127.875 C-146.875 124.875 -146.875 124.875 -144.375 124.875 C-144.91640625 123.8540625 -144.91640625 123.8540625 -145.46875 122.8125 C-149.82848118 113.70550598 -151.38638302 104.21261514 -148.67578125 94.32421875 C-147.74539464 92.30249256 -146.7113594 90.65122691 -145.375 88.875 C-144.97410156 88.2871875 -144.57320312 87.699375 -144.16015625 87.09375 C-136.79529663 77.35932685 -124.7676963 72.34101612 -113.04296875 70.29296875 C-91.30714018 67.81614909 -70.0187268 72.63652802 -52.375 85.875 C-52.51574951 85.16537109 -52.65649902 84.45574219 -52.80151367 83.72460938 C-54.24600012 75.88656746 -54.7101402 68.33529538 -54.6875 60.375 C-54.70361328 59.24191406 -54.71972656 58.10882813 -54.73632812 56.94140625 C-54.74255576 46.06795486 -52.69045912 36.33145018 -47.625 26.6875 C-47.27501953 26.00824463 -46.92503906 25.32898926 -46.56445312 24.62915039 C-37.69438302 7.84939978 -20.36367558 -9.53193325 0 0 Z " fill="#513921" transform="translate(500.375,66.125)"/>
<path d="M0 0 C3.54300232 2.14644024 6.48478691 4.52397332 9.44921875 7.40625 C12.76054316 10.29613312 15.37054711 11.043887 19.75 10.75390625 C23.32937617 9.70914879 25.48249056 7.48243217 28.109375 4.91796875 C31.78771653 1.39068847 35.32150301 -0.66040044 40.44921875 -1.40625 C50.09933244 -0.05184808 57.47869857 6.42265961 63.21875 14.01171875 C74.25647733 30.82428672 75.4928136 50.15008295 72.38671875 69.76171875 C69.43945131 82.87969033 63.2287095 95.3928262 56.82421875 107.1484375 C55.75478232 109.3575528 55.75478232 109.3575528 56.01171875 113.09375 C59.01995464 111.75919901 60.95679529 110.34332225 63.1484375 107.8984375 C63.72078125 107.2688916 64.293125 106.6393457 64.8828125 105.99072266 C65.48222656 105.32347168 66.08164062 104.6562207 66.69921875 103.96875 C80.80905713 88.6213975 98.70894765 73.4178591 120.59204102 71.91674805 C144.96329095 71.37091208 144.96329095 71.37091208 154.01171875 76.09375 C154.83542969 76.51785156 155.65914062 76.94195312 156.5078125 77.37890625 C162.21934819 80.74580495 166.32347938 84.9868817 169.01171875 91.09375 C170.72479894 98.66317411 167.34008521 105.43701707 164.01171875 112.09375 C163.66712933 115.09660068 163.43941241 117.19294236 164.01171875 120.09375 C166.05791331 122.29734414 167.53211674 123.53139914 170.01171875 125.09375 C180.5459207 131.79407573 180.5459207 131.79407573 182.01171875 136.09375 C183.1985363 144.59927577 180.99128875 151.57633743 176.31640625 158.6640625 C165.68079933 172.74440041 150.30208988 181.14394915 133.01171875 184.09375 C113.70187968 186.70633831 95.10700666 184.06399646 76.01171875 181.09375 C76.01171875 182.41375 76.01171875 183.73375 76.01171875 185.09375 C77.14609375 185.42375 78.28046875 185.75375 79.44921875 186.09375 C91.61061679 190.18597398 103.11287168 195.89140345 113.01171875 204.09375 C113.8728125 204.80402344 114.73390625 205.51429688 115.62109375 206.24609375 C129.38691962 218.11390423 140.3864421 234.56559614 142.01171875 253.09375 C142.66563154 262.50371448 141.32322726 271.7002686 135.01171875 279.09375 C128.74657948 283.36406893 122.11682327 282.23255224 114.890625 281.88867188 C109.41973311 281.63623743 109.41973311 281.63623743 104.484375 283.6328125 C102.24123487 287.381296 101.17024794 291.34294068 100.03320312 295.51757812 C98.62300544 300.25147406 96.80316991 302.94392903 93.01171875 306.09375 C84.15881665 309.73906263 75.72009912 308.56838416 66.953125 305.34375 C49.29968038 297.84162214 36.98357893 283.20895041 29.41796875 265.87109375 C24.58518224 253.44441602 21.51568423 240.16269266 19.01171875 227.09375 C18.02171875 227.09375 17.03171875 227.09375 16.01171875 227.09375 C15.85614502 227.80805176 15.70057129 228.52235352 15.5402832 229.25830078 C10.76837916 250.99716934 6.04348258 271.85143267 -8.98828125 289.09375 C-9.49617187 289.69574219 -10.0040625 290.29773438 -10.52734375 290.91796875 C-19.70519922 300.97744088 -32.73499377 307.28430301 -46.21484375 308.25390625 C-51.23419051 308.44695805 -54.74046079 308.05734567 -58.98828125 305.09375 C-62.79724825 300.09911233 -64.42260462 295.22348614 -66.14257812 289.30859375 C-67.46553484 284.9601075 -67.46553484 284.9601075 -70.98828125 282.09375 C-73.37927797 281.93141621 -73.37927797 281.93141621 -76.03125 282.14453125 C-77.51915039 282.20157227 -77.51915039 282.20157227 -79.03710938 282.25976562 C-81.11107837 282.35655945 -83.18421979 282.47339397 -85.25585938 282.61132812 C-90.66839801 282.78254465 -94.23055231 282.54685234 -98.5390625 279.07421875 C-104.80505417 272.62491134 -105.5503846 265.66083028 -105.48828125 256.96875 C-105.48328613 256.04731201 -105.47829102 255.12587402 -105.47314453 254.17651367 C-105.01425127 236.04390026 -94.95462861 221.35908778 -82.64453125 208.6796875 C-70.78990671 197.47937666 -55.83778073 190.46853513 -40.98828125 184.09375 C-40.98828125 183.43375 -40.98828125 182.77375 -40.98828125 182.09375 C-47.54767417 181.83253524 -53.61128125 182.42698985 -60.06640625 183.58203125 C-83.84130135 187.74581636 -107.84142672 185.07725759 -127.98828125 171.09375 C-136.20791764 164.95606099 -142.74373209 156.94868903 -145.98828125 147.09375 C-146.70366582 141.49868963 -146.88758723 136.71250077 -144.11328125 131.71875 C-140.99548231 128.6726246 -137.10726034 126.63800319 -133.29296875 124.5859375 C-130.82455439 122.9877438 -129.51482163 121.59260909 -127.98828125 119.09375 C-127.13986005 114.00322278 -128.39154492 110.90066692 -130.48828125 106.21875 C-133.07001554 100.32709995 -134.50490784 95.42951779 -132.32421875 89.1953125 C-127.96339443 80.51158406 -119.70723714 76.44514039 -110.98828125 73.09375 C-93.79920328 67.97765242 -74.64301652 72.58299686 -59.17578125 80.34375 C-52.86094849 83.9455435 -47.42347034 88.29037127 -41.98828125 93.09375 C-41.13363281 93.82722656 -40.27898437 94.56070313 -39.3984375 95.31640625 C-34.12957187 99.91956004 -29.43076936 104.79478031 -24.8984375 110.125 C-23.05499908 112.32743963 -23.05499908 112.32743963 -19.98828125 113.09375 C-20.50771684 108.13276368 -22.20302195 104.52010311 -24.67578125 100.28125 C-29.1719506 92.20372947 -32.2665596 83.91009734 -34.98828125 75.09375 C-35.50068359 73.49660156 -35.50068359 73.49660156 -36.0234375 71.8671875 C-40.93467339 54.1867383 -38.9185832 35.23701491 -30.55078125 19.03125 C-24.93480252 9.32769182 -13.01200159 -5.93081408 0 0 Z " fill="#FDAEAC" transform="translate(493.98828125,74.90625)"/>
<path d="M0 0 C4.01904831 1.47088881 6.9463874 3.65371236 10.28125 6.296875 C11.31572266 7.09448242 11.31572266 7.09448242 12.37109375 7.90820312 C14.59997526 9.63088444 16.81595627 11.36926657 19.03125 13.109375 C20.52539253 14.27296943 22.02018523 15.43572948 23.515625 16.59765625 C25.78663384 18.36301174 28.05682641 20.12934644 30.32397461 21.8996582 C35.76470001 26.14453021 41.25894075 30.31015767 46.79003906 34.4362793 C53.21161384 39.23045792 59.57914823 44.09428546 65.94775391 48.95849609 C72.96720313 54.31352665 80.02311978 59.61835527 87.10839844 64.88598633 C88.6017807 66.00033996 90.08102199 67.13401373 91.54225159 68.29020691 C93.96452876 70.1650182 93.96452876 70.1650182 96.63493347 71.42004395 C99.95152763 73.34077943 101.81102976 74.95494531 104.03125 78.109375 C105.91597077 85.25800801 105.19107507 93.01081816 105.0078125 100.328125 C104.98914646 102.51384235 104.97491883 104.69960172 104.9649353 106.88537598 C104.92686885 112.62069515 104.82874304 118.35345591 104.71789551 124.08776855 C104.61534435 129.94618115 104.56987256 135.80500982 104.51953125 141.6640625 C104.4124884 153.14695354 104.24196129 164.62795101 104.03125 176.109375 C101.1554736 177.24061182 98.27796948 178.36738913 95.40014648 179.4934082 C94.59108604 179.81172859 93.7820256 180.13004898 92.94844818 180.45801544 C87.0756418 182.75238193 81.20445581 184.72863549 75.09375 186.296875 C74.17174805 186.53897705 73.24974609 186.7810791 72.29980469 187.03051758 C69.54789435 187.74212888 66.79154937 188.4311039 64.03125 189.109375 C63.23638184 189.30660156 62.44151367 189.50382813 61.62255859 189.70703125 C56.12491015 191.04319225 50.60716526 192.15268105 45.03125 193.109375 C44.15275391 193.26035645 43.27425781 193.41133789 42.36914062 193.56689453 C11.61591251 198.55434073 -21.44492938 198.24895359 -51.96875 192.109375 C-53.57943359 191.79589111 -53.57943359 191.79589111 -55.22265625 191.47607422 C-67.8698384 188.96058135 -80.0724157 185.55736366 -92.27734375 181.40234375 C-94.12144836 180.78087463 -94.12144836 180.78087463 -96.00280762 180.14685059 C-98.99289186 179.1385241 -101.98147497 178.12598734 -104.96875 177.109375 C-105.24734279 164.37465239 -105.46028412 151.64065962 -105.59049606 138.90350533 C-105.65300796 132.98828288 -105.73772319 127.07515163 -105.87402344 121.16113281 C-106.00484921 115.44860324 -106.07624838 109.73807856 -106.10727692 104.02416611 C-106.12937383 101.84948033 -106.17252913 99.67489895 -106.23751068 97.50107193 C-106.7517269 79.5787938 -106.7517269 79.5787938 -102.38247681 74.61193848 C-99.52133642 71.97601947 -96.34404581 70.03780107 -92.96875 68.109375 C-91.38864272 66.94721081 -89.8199918 65.76895532 -88.2734375 64.5625 C-86.79921019 63.49156969 -85.32261478 62.4238922 -83.84375 61.359375 C-77.48938092 56.73184016 -71.21705805 52.02246878 -65.03125 47.171875 C-57.90795737 41.58786499 -50.69592277 36.13535098 -43.44091797 30.72387695 C-37.79279946 26.50176856 -32.20965633 22.20507696 -26.65625 17.859375 C-24.47102603 16.16047613 -22.2844494 14.46333877 -20.09716797 12.76708984 C-18.67010006 11.65562035 -17.24727625 10.53868153 -15.82861328 9.41650391 C-13.80428776 7.81835218 -11.76398396 6.24312924 -9.71875 4.671875 C-8.82482544 3.95306152 -8.82482544 3.95306152 -7.9128418 3.21972656 C-5.20882822 1.17327904 -3.4221675 0.12607986 0 0 Z " fill="#F5DFC4" transform="translate(512.96875,491.890625)"/>
<path d="M0 0 C2.43245121 1.57588765 4.70902461 3.28372991 7.0078125 5.05078125 C8.31611832 6.0420468 9.62474026 7.0328952 10.93359375 8.0234375 C13.9007933 10.27770358 16.85780328 12.54461538 19.80859375 14.8203125 C23.18779567 17.42522425 26.58818582 19.99903224 30.0078125 22.55078125 C40.78980746 30.61524342 51.45650238 38.82913672 62.0703125 47.11328125 C68.43426165 52.0791784 74.85088014 56.96602719 81.32055664 61.79321289 C85.40957964 64.8455678 89.47121721 67.9294641 93.5078125 71.05078125 C98.31038374 74.75969765 103.14803985 78.41719857 108.0078125 82.05078125 C115.05575306 87.32369739 122.05680871 92.65052633 129.0078125 98.05078125 C129.94882812 98.77265625 130.88984375 99.49453125 131.859375 100.23828125 C143.5092112 109.31072006 143.5092112 109.31072006 144.44140625 114.43359375 C144.65224729 118.71430572 144.23184006 121.55792061 142.4453125 125.48828125 C138.69272083 129.43331352 135.02836354 130.66221374 129.7578125 131.67578125 C120.46186818 130.1264572 112.12367496 122.03394758 104.8203125 116.36328125 C102.98347299 114.95000071 101.14622948 113.53724509 99.30859375 112.125 C98.41221191 111.4345459 97.51583008 110.7440918 96.59228516 110.03271484 C92.92005894 107.21662449 89.21675233 104.44323149 85.5078125 101.67578125 C80.28103731 97.76950925 75.09046343 93.82098066 69.9284668 89.82958984 C65.75715288 86.61068022 61.54327364 83.45150616 57.3203125 80.30078125 C51.49540183 75.95181506 45.73578997 71.5265505 40.0078125 67.05078125 C29.238069 58.64265156 18.34878696 50.40637173 7.2578125 42.42578125 C6.68514648 42.01166992 6.11248047 41.59755859 5.52246094 41.17089844 C0.13283006 37.32394002 -3.90482199 35.10058473 -10.62109375 35.234375 C-18.46249102 37.13339242 -24.74889485 43.17295361 -30.9921875 48.05078125 C-32.46145456 49.16681553 -33.93279128 50.28013068 -35.40625 51.390625 C-38.97625638 54.08904857 -42.52319393 56.81573732 -46.06103516 59.55615234 C-47.80933201 60.90925896 -49.56151969 62.2570199 -51.31640625 63.6015625 C-58.34651567 68.99101903 -65.33908157 74.42797119 -72.32861328 79.86987305 C-78.86357295 84.95593325 -85.42352669 90.0083433 -91.9921875 95.05078125 C-92.96542969 95.80101562 -93.93867188 96.55125 -94.94140625 97.32421875 C-97.62136615 99.38994969 -100.3037886 101.45237517 -102.98828125 103.51220703 C-104.46035908 104.64245002 -105.93159118 105.77379474 -107.40234375 106.90576172 C-139.35280291 131.48166445 -139.35280291 131.48166445 -147.93359375 131.32421875 C-152.03620375 130.77928004 -154.71702611 128.65067318 -157.25 125.47265625 C-159.90781696 121.34653481 -160.85992729 117.99689808 -159.9921875 113.05078125 C-156.57853002 107.24763819 -152.12459233 103.19239685 -146.6796875 99.36328125 C-145.24928884 98.32389466 -143.81962479 97.28349649 -142.390625 96.2421875 C-141.29572754 95.45158936 -141.29572754 95.45158936 -140.17871094 94.64501953 C-136.67467152 92.09015381 -133.24129303 89.44526284 -129.8046875 86.80078125 C-128.38171206 85.71067424 -126.95852984 84.6208371 -125.53515625 83.53125 C-123.190853 81.73527356 -120.84660179 79.93922931 -118.50244141 78.14306641 C-109.16101324 70.99007031 -99.79909652 63.87489312 -90.3046875 56.92578125 C-83.2870664 51.78875151 -76.39083363 46.51666137 -69.54345703 41.15527344 C-64.16260195 36.94621761 -58.72602479 32.82106258 -53.25024414 28.73657227 C-47.55236217 24.48265003 -41.89478444 20.17714472 -36.2421875 15.86328125 C-34.45840167 14.50381658 -32.67454946 13.144439 -30.890625 11.78515625 C-28.57178388 10.01816544 -26.25334088 8.25071322 -23.93847656 6.47851562 C-22.25071074 5.18655725 -20.55954997 3.8992081 -18.8671875 2.61328125 C-17.97773438 1.93394531 -17.08828125 1.25460937 -16.171875 0.5546875 C-11.1480721 -2.91155644 -5.41501573 -2.58009573 0 0 Z " fill="#A56841" transform="translate(519.9921875,447.94921875)"/>
<path d="M0 0 C1.00893311 0.00499512 2.01786621 0.00999023 3.05737305 0.01513672 C11.23512076 0.20582152 17.43279543 1.55994493 24.6875 5.5 C25.5846875 5.94601562 26.481875 6.39203125 27.40625 6.8515625 C36.32539869 11.66038062 43.07830442 18.99752853 46.6875 28.5 C47.13416016 29.66208984 47.13416016 29.66208984 47.58984375 30.84765625 C52.08259659 44.57436194 50.72728998 59.43457676 44.296875 72.27734375 C42.86667218 74.78019868 41.34432275 77.14205326 39.6875 79.5 C39.24792969 80.13550781 38.80835938 80.77101563 38.35546875 81.42578125 C30.64603666 91.44582123 17.88234493 96.57354163 5.6875 98.5 C-10.47341436 99.42044638 -23.58087765 97.01191927 -36.59765625 86.6875 C-45.42154496 78.52667807 -51.05274409 67.83476876 -51.6484375 55.80078125 C-51.91787936 40.99178563 -50.05800604 29.21534237 -40.3125 17.5 C-39.78914062 16.86449219 -39.26578125 16.22898437 -38.7265625 15.57421875 C-28.58916323 4.42307956 -14.67463176 -0.09587246 0 0 Z " fill="#533B23" transform="translate(675.3125,732.5)"/>
<path d="M0 0 C0.91007812 0.45761719 1.82015625 0.91523437 2.7578125 1.38671875 C13.39479928 7.18149513 19.14401142 15.89462395 23.109375 27.1484375 C26.48339244 41.7395831 24.78586707 56.84664589 17.390625 69.82421875 C9.57614821 81.81478062 -2.08165789 89.16752313 -15.95703125 92.53125 C-31.37549896 94.90636698 -46.85994681 92.42587354 -59.59765625 83.09765625 C-68.8836171 75.35235256 -75.30115969 65.07390074 -77 53 C-78.33554403 38.23481873 -75.52442682 26.32498991 -67 14 C-66.56042969 13.36320313 -66.12085938 12.72640625 -65.66796875 12.0703125 C-51.23631143 -6.64509324 -20.09662141 -10.78841291 0 0 Z " fill="#533B23" transform="translate(418,738)"/>
<path d="M0 0 C1.37821426 -0.01902626 1.37821426 -0.01902626 2.78427124 -0.03843689 C3.77794708 -0.03550125 4.77162292 -0.03256561 5.79541016 -0.02954102 C7.34091049 -0.03740379 7.34091049 -0.03740379 8.91763306 -0.04542542 C11.10491028 -0.05185634 13.29222204 -0.05049485 15.47949219 -0.04199219 C18.78727167 -0.03356748 22.09327394 -0.06209037 25.40087891 -0.09399414 C39.93325211 -0.14415536 52.56093063 -0.13762934 63.75244141 10.30639648 C67.42436721 14.8185799 67.91060965 19.20242332 67.76806641 24.84545898 C66.94742982 31.64947117 63.42731238 35.95749223 58.24072266 40.17749023 C56.45947266 41.40405273 56.45947266 41.40405273 54.30322266 42.44311523 C52.28395691 43.26635772 52.28395691 43.26635772 51.45947266 45.40405273 C53.19197266 45.74436523 53.19197266 45.74436523 54.95947266 46.09155273 C62.83384874 48.07410842 68.19191839 52.2962874 72.54150391 59.09545898 C73.84169038 62.36528964 73.76146985 65.27111465 73.77197266 68.77905273 C73.78873047 70.06553711 73.80548828 71.35202148 73.82275391 72.67749023 C73.1864438 79.20480036 70.33146004 83.18166367 65.45947266 87.40405273 C56.07897356 94.46036567 46.4671605 95.86355756 34.95947266 95.76733398 C33.8019751 95.76783249 32.64447754 95.76833099 31.4519043 95.7688446 C29.02488472 95.76651818 26.59786208 95.75687512 24.17089844 95.74023438 C20.44265464 95.71644542 16.71511783 95.71970876 12.98681641 95.72631836 C10.62353087 95.7207474 8.26024835 95.71364121 5.89697266 95.70483398 C4.77935547 95.70574539 3.66173828 95.7066568 2.51025391 95.70759583 C1.48158203 95.69806381 0.45291016 95.6885318 -0.60693359 95.67871094 C-1.96733765 95.67179985 -1.96733765 95.67179985 -3.35522461 95.66474915 C-5.54052734 95.40405273 -5.54052734 95.40405273 -7.54052734 93.40405273 C-7.60302734 91.02905273 -7.60302734 91.02905273 -6.54052734 88.40405273 C-4.3129496 86.80825743 -1.98517144 85.67002914 0.45947266 84.40405273 C1.88990806 81.54318192 1.60259398 79.08850148 1.62060547 75.890625 C1.62557037 75.22215546 1.63053528 74.55368591 1.63565063 73.86495972 C1.65027488 71.65011574 1.65707413 69.43534334 1.66259766 67.22045898 C1.66834825 65.68350726 1.674106 64.14655556 1.67987061 62.60960388 C1.6903809 59.38572861 1.69622358 56.16187828 1.69970703 52.93798828 C1.70519633 48.80393862 1.72923321 44.67021758 1.75767899 40.5362711 C1.77628691 37.36129283 1.78150994 34.18639408 1.78304291 31.01136589 C1.78607343 29.48710264 1.7941154 27.96284092 1.80722809 26.43863106 C1.82425313 24.30778986 1.82241778 22.17775631 1.81591797 20.046875 C1.82138641 18.22724998 1.82138641 18.22724998 1.82696533 16.37086487 C1.70605893 13.42546798 1.70605893 13.42546798 0.10125732 11.54356384 C-1.6033933 10.24643136 -1.6033933 10.24643136 -4.16552734 9.52905273 C-6.54052734 8.40405273 -6.54052734 8.40405273 -7.54052734 5.96655273 C-7.54052734 3.40405273 -7.54052734 3.40405273 -6.3243103 1.76914978 C-4.06620344 0.04106118 -2.82502176 0.01891764 0 0 Z " fill="#513922" transform="translate(168.54052734375,733.595947265625)"/>
<path d="M0 0 C1.29349365 0.00523682 2.5869873 0.01047363 3.91967773 0.01586914 C4.9496714 0.01799156 4.9496714 0.01799156 6.00047302 0.02015686 C8.20144949 0.0257706 10.40232557 0.03832532 12.60327148 0.05102539 C14.09220231 0.05603863 15.58113473 0.06060184 17.07006836 0.06469727 C20.72700223 0.07574446 24.38387707 0.09301826 28.04077148 0.11352539 C32.46480546 9.4523873 36.72648383 18.85444971 40.91577148 28.30102539 C41.43034912 29.45892578 41.94492676 30.61682617 42.47509766 31.80981445 C44.90285766 37.27637476 47.31987494 42.74703794 49.70874023 48.23071289 C50.50685984 50.04584233 51.30503339 51.86094806 52.10327148 53.67602539 C52.4608252 54.50835693 52.81837891 55.34068848 53.18676758 56.19824219 C53.68877686 57.33386597 53.68877686 57.33386597 54.20092773 58.49243164 C54.48589111 59.14800049 54.77085449 59.80356934 55.06445312 60.47900391 C56.08490021 62.45340926 56.08490021 62.45340926 59.04077148 64.11352539 C59.41661377 62.89777832 59.41661377 62.89777832 59.80004883 61.6574707 C61.27078229 57.45653269 63.05022243 53.45912125 64.89233398 49.41040039 C65.45892227 48.15540741 65.45892227 48.15540741 66.03695679 46.87506104 C67.24380835 44.2032941 68.45463189 41.53335087 69.66577148 38.86352539 C71.24226784 35.37959125 72.81723653 31.89496714 74.39233398 28.41040039 C74.77810608 27.5578064 75.16387817 26.7052124 75.56134033 25.82678223 C79.42831539 17.27365225 83.24050293 8.69646261 87.04077148 0.11352539 C91.15249708 0.08886793 95.26419426 0.0706858 99.37597656 0.05859375 C100.77572377 0.0535546 102.17546569 0.04672323 103.57519531 0.03808594 C105.58322925 0.02600219 107.59130106 0.02082732 109.59936523 0.01586914 C111.41392212 0.00801392 111.41392212 0.00801392 113.26513672 0 C116.04077148 0.11352539 116.04077148 0.11352539 117.04077148 1.11352539 C117.22827148 3.55102539 117.22827148 3.55102539 117.04077148 6.11352539 C115.04077148 8.11352539 115.04077148 8.11352539 111.47827148 9.55102539 C110.34389648 10.06665039 109.20952148 10.58227539 108.04077148 11.11352539 C105.38953102 19.06724679 107.08124065 28.59680146 107.61669922 36.87988281 C107.95811507 42.55555666 108.1323866 48.22674502 108.25952148 53.91040039 C108.28708275 55.08359329 108.28708275 55.08359329 108.31520081 56.28048706 C108.38993731 59.4803848 108.46433716 62.68012839 108.51950073 65.88043213 C108.55875399 68.15369503 108.6094335 70.42647127 108.66186523 72.69946289 C108.67024414 73.38731873 108.67862305 74.07517456 108.68725586 74.78387451 C108.7800601 78.36165727 109.00180665 81.11288736 111.04077148 84.11352539 C112.96768781 85.43732878 112.96768781 85.43732878 115.16577148 86.36352539 C115.89022461 86.69868164 116.61467773 87.03383789 117.36108398 87.37915039 C118.1925293 87.74266602 118.1925293 87.74266602 119.04077148 88.11352539 C118.16577148 92.98852539 118.16577148 92.98852539 117.04077148 94.11352539 C114.47057664 94.22684632 111.92825671 94.27770024 109.35717773 94.28149414 C108.58647446 94.28482254 107.81577118 94.28815094 107.02171326 94.2915802 C105.38834227 94.29665249 103.75496089 94.29898843 102.12158203 94.29882812 C99.61725849 94.30101319 97.11337628 94.31916134 94.60913086 94.33813477 C93.025148 94.34106886 91.44116303 94.34305355 89.85717773 94.34399414 C89.10505508 94.35117966 88.35293243 94.35836517 87.57801819 94.36576843 C82.26959428 94.34234818 82.26959428 94.34234818 80.04077148 92.11352539 C79.97827148 89.80102539 79.97827148 89.80102539 81.04077148 87.11352539 C82.20358643 86.50484619 83.36640137 85.89616699 84.56445312 85.26904297 C87.18016775 83.45353753 87.93549299 82.56880176 88.662323 79.42562866 C88.85224731 75.91080695 88.82664701 72.45633706 88.72436523 68.93774414 C88.7144606 67.65744827 88.70455597 66.3771524 88.6943512 65.05805969 C88.66771169 61.66558982 88.59903491 58.27524147 88.52142334 54.88360596 C88.44961924 51.41822002 88.41780371 47.95248879 88.38256836 44.48657227 C88.30541412 37.6946393 88.18829569 30.9042746 88.04077148 24.11352539 C87.38077148 24.11352539 86.72077148 24.11352539 86.04077148 24.11352539 C85.92846191 24.81574219 85.81615234 25.51795898 85.70043945 26.24145508 C84.9700867 29.42127366 83.83942136 32.09794945 82.48608398 35.06665039 C81.95885742 36.23172119 81.43163086 37.39679199 80.88842773 38.59716797 C80.31433061 39.85267606 79.74010904 41.10812726 79.16577148 42.36352539 C77.97871741 44.97582965 76.79489415 47.58959356 75.61108398 50.20336914 C75.31147766 50.86354538 75.01187134 51.52372162 74.70318604 52.2039032 C72.7325697 56.55473258 70.80625653 60.92204389 68.90795898 65.30493164 C68.42311035 66.42287109 67.93826172 67.54081055 67.4387207 68.69262695 C66.53186319 70.7901507 65.62956417 72.88965344 64.73266602 74.99145508 C59.49345952 87.06875398 59.49345952 87.06875398 56.04077148 91.11352539 C52.72827148 92.11352539 52.72827148 92.11352539 50.04077148 92.11352539 C47.17777671 88.74268486 45.10380003 85.53611135 43.26342773 81.51977539 C42.75593994 80.42028564 42.24845215 79.3207959 41.72558594 78.18798828 C41.19022217 77.00841553 40.6548584 75.82884277 40.10327148 74.61352539 C39.53757299 73.37950741 38.9714026 72.14570567 38.40478516 70.91210938 C36.60476675 66.98466757 34.82109144 63.04992857 33.04077148 59.11352539 C32.7371167 58.44266907 32.43346191 57.77181274 32.12060547 57.08062744 C20.57348044 31.55995171 20.57348044 31.55995171 18.04077148 25.11352539 C17.2663507 28.55988275 16.9031274 31.7696503 16.86376953 35.29931641 C16.8509343 36.30708633 16.83809906 37.31485626 16.82487488 38.35316467 C16.81748795 39.43037277 16.81010101 40.50758087 16.80249023 41.61743164 C16.79441849 42.7328685 16.78634674 43.84830536 16.7780304 44.99754333 C16.76422307 47.35186217 16.75348599 49.70620074 16.74560547 52.06054688 C16.72831726 55.66647704 16.68439166 59.27150777 16.64038086 62.87719727 C16.63025983 65.16560199 16.62174189 67.45401449 16.61499023 69.74243164 C16.59748215 70.82166397 16.57997406 71.9008963 16.56193542 73.01283264 C16.56486099 74.01745041 16.56778656 75.02206818 16.57080078 76.05712891 C16.56493454 76.93917496 16.5590683 77.82122101 16.55302429 78.72999573 C17.20313751 81.90697792 18.58791282 83.06039546 21.04077148 85.11352539 C22.68055467 86.15702378 24.34171514 87.1696052 26.04077148 88.11352539 C25.16577148 92.98852539 25.16577148 92.98852539 24.04077148 94.11352539 C19.5674519 94.36732773 15.08293688 94.2987526 10.60327148 94.30102539 C8.70351563 94.31939453 8.70351563 94.31939453 6.76538086 94.33813477 C5.55817383 94.34006836 4.3509668 94.34200195 3.10717773 94.34399414 C1.43570679 94.35015747 1.43570679 94.35015747 -0.26953125 94.35644531 C-2.95922852 94.11352539 -2.95922852 94.11352539 -4.95922852 92.11352539 C-5.02172852 89.80102539 -5.02172852 89.80102539 -3.95922852 87.11352539 C-2.23191982 85.71140684 -0.46672192 84.55546308 1.44702148 83.42211914 C3.49884347 81.73741236 3.54952875 80.69504734 4.04077148 78.11352539 C5.44237437 63.16253912 5.16111453 47.92474342 5.2170105 32.91708374 C5.22452279 31.04680872 5.23520817 29.17654378 5.24905396 27.30630493 C5.26686265 24.65861909 5.2710811 22.01126401 5.27124023 19.36352539 C5.27838043 18.55944748 5.28552063 17.75536957 5.2928772 16.92692566 C5.44870593 12.55272634 5.44870593 12.55272634 3.04077148 9.11352539 C1.04904967 8.42251986 -0.95084655 7.75449836 -2.95922852 7.11352539 C-3.95922852 6.11352539 -3.95922852 6.11352539 -4.08422852 3.61352539 C-3.90259854 -0.01907407 -3.68763055 0.1414692 0 0 Z " fill="#523A22" transform="translate(743.959228515625,734.886474609375)"/>
<path d="M0 0 C2.4375 0.8125 2.4375 0.8125 4.4375 2.8125 C4.67800903 4.68545532 4.67800903 4.68545532 4.66455078 6.98681641 C4.66439972 7.84755768 4.66424866 8.70829895 4.66409302 9.59512329 C4.65377045 10.52537323 4.64344788 11.45562317 4.6328125 12.4140625 C4.6299826 13.36566254 4.62715271 14.31726257 4.62423706 15.29769897 C4.61301989 18.34442592 4.58791263 21.39086154 4.5625 24.4375 C4.55247218 26.49999576 4.54334599 28.56249612 4.53515625 30.625 C4.51307554 35.68761267 4.4785353 40.7500069 4.4375 45.8125 C9.50989489 42.93791679 11.97140286 39.63960862 15.27734375 34.89453125 C17.4375 32.8125 17.4375 32.8125 20.56640625 32.38671875 C23.4375 32.8125 23.4375 32.8125 25.4375 34.8125 C25.12357923 40.74395028 22.39020371 43.93574945 18.8359375 48.4453125 C17.16564324 50.67635319 17.16564324 50.67635319 17.85009766 52.96044922 C18.04394043 53.57162598 18.2377832 54.18280273 18.4375 54.8125 C21.60520493 53.92031239 24.77157779 53.02349247 27.9375 52.125 C28.8869751 51.85606934 29.8364502 51.58713867 30.81469727 51.31005859 C35.29146471 50.03291513 39.75393341 48.7336553 44.18359375 47.30078125 C44.89644531 47.07028076 45.60929688 46.83978027 46.34375 46.60229492 C48.26173049 45.97457126 50.17592035 45.3352995 52.08984375 44.6953125 C56.04294535 43.65283763 59.71137442 42.81023353 63.375 44.9375 C64.94326287 47.70502272 64.03310549 49.78107345 63.4375 52.8125 C59.38679835 54.18780966 55.33399654 55.55670187 51.27929688 56.92016602 C49.9056837 57.38300696 48.53261716 57.84747405 47.16015625 58.3137207 C38.66962118 61.19665458 30.18785342 63.81056271 21.4375 65.8125 C21.4375 66.8025 21.4375 67.7925 21.4375 68.8125 C22.14519531 68.93882812 22.85289062 69.06515625 23.58203125 69.1953125 C26.53005949 69.83250602 29.28067229 70.68635873 32.125 71.6875 C33.55392578 72.17863281 33.55392578 72.17863281 35.01171875 72.6796875 C37.4375 73.8125 37.4375 73.8125 39.4375 76.8125 C38.89695946 81.35304054 38.89695946 81.35304054 37.4375 82.8125 C32.02471922 83.19234427 28.24737191 82.67806267 23.296875 80.46875 C21.13747075 79.59061992 21.13747075 79.59061992 17.4375 79.8125 C18.06493562 83.19663215 19.33220674 85.39700952 21.31640625 88.19140625 C21.90470215 89.02526855 22.49299805 89.85913086 23.09912109 90.71826172 C23.72641113 91.59498535 24.35370117 92.47170898 25 93.375 C25.63244629 94.27234863 26.26489258 95.16969727 26.91650391 96.09423828 C29.60309373 99.89479675 32.30226388 103.67723292 35.14453125 107.36328125 C35.85996094 108.29527344 36.57539062 109.22726562 37.3125 110.1875 C37.92867187 110.95835937 38.54484375 111.72921875 39.1796875 112.5234375 C40.80159324 115.47510446 40.81227527 117.49436771 40.4375 120.8125 C38.4375 122.8125 38.4375 122.8125 35.75 123.5 C30.29230332 122.3672705 28.45332131 118.26169645 25.4375 113.8125 C24.54554767 112.53036079 23.65222599 111.24917353 22.7578125 109.96875 C18.27021991 103.51228359 13.82718531 97.04561649 9.75390625 90.31640625 C8.10263227 88.42993598 6.84046341 88.32123687 4.4375 87.8125 C4.48970703 89.70935547 4.48970703 89.70935547 4.54296875 91.64453125 C4.57110677 93.30467423 4.59840691 94.96483156 4.625 96.625 C4.65013672 97.45837891 4.67527344 98.29175781 4.70117188 99.15039062 C4.71083984 99.95283203 4.72050781 100.75527344 4.73046875 101.58203125 C4.7461792 102.32042236 4.76188965 103.05881348 4.77807617 103.81958008 C4.33776728 106.39609725 3.53365295 107.287609 1.4375 108.8125 C-3.99728261 108.37771739 -3.99728261 108.37771739 -5.5625 106.8125 C-5.64901611 105.39679877 -5.66954904 103.976905 -5.66015625 102.55859375 C-5.65693359 101.70458984 -5.65371094 100.85058594 -5.65039062 99.97070312 C-5.63782227 98.62395508 -5.63782227 98.62395508 -5.625 97.25 C-5.62048828 96.34830078 -5.61597656 95.44660156 -5.61132812 94.51757812 C-5.59950225 92.28248686 -5.5830222 90.04752563 -5.5625 87.8125 C-6.8825 87.8125 -8.2025 87.8125 -9.5625 87.8125 C-9.77777344 88.4828125 -9.99304688 89.153125 -10.21484375 89.84375 C-12.00094591 93.77835185 -14.4849677 96.91150999 -17.125 100.3125 C-21.90870945 106.57079422 -26.48456166 112.92327522 -30.91796875 119.43359375 C-32.5625 121.8125 -32.5625 121.8125 -33.5625 122.8125 C-37.0625 122.9375 -37.0625 122.9375 -40.5625 122.8125 C-41.5625 121.8125 -41.5625 121.8125 -41.890625 118.6171875 C-41.49217955 113.99711767 -40.27650105 112.45142578 -37.3125 108.9375 C-36.39762671 107.8191913 -35.48634616 106.6979366 -34.578125 105.57421875 C-34.09150391 104.97657715 -33.60488281 104.37893555 -33.10351562 103.76318359 C-30.28327382 100.1932007 -27.67891074 96.47053288 -25.0625 92.75 C-24.2885791 91.66066162 -24.2885791 91.66066162 -23.49902344 90.54931641 C-23.0146582 89.86144043 -22.53029297 89.17356445 -22.03125 88.46484375 C-21.38833008 87.55206665 -21.38833008 87.55206665 -20.73242188 86.62084961 C-19.51815835 84.74396106 -18.52481675 82.82853136 -17.5625 80.8125 C-21.0758554 79.60478408 -23.11032683 79.8647567 -26.4375 81.25 C-30.26979483 82.83227325 -33.38182057 83.23056794 -37.5625 82.8125 C-39.5625 80.8125 -39.5625 80.8125 -40.0625 78.4375 C-39.5625 75.8125 -39.5625 75.8125 -37.125 73.6875 C-32.42236364 70.9330987 -27.03360304 68.8125 -21.5625 68.8125 C-22.35564316 66.69042667 -22.35564316 66.69042667 -24.22581482 66.09191895 C-24.94592239 65.87144897 -25.66602997 65.650979 -26.40795898 65.42382812 C-27.62943886 65.04333313 -27.62943886 65.04333313 -28.87559509 64.65515137 C-30.20367943 64.25350769 -30.20367943 64.25350769 -31.55859375 63.84375 C-32.91441307 63.42228699 -32.91441307 63.42228699 -34.29762268 62.99230957 C-37.19622212 62.09176046 -40.09774309 61.20118579 -43 60.3125 C-45.89852654 59.42334022 -48.79624959 58.53193043 -51.69166565 57.63269043 C-53.49606742 57.07237646 -55.3023034 56.51792992 -57.11045837 55.96984863 C-58.33666649 55.58935364 -58.33666649 55.58935364 -59.58764648 55.20117188 C-60.30854965 54.9807019 -61.02945282 54.76023193 -61.77220154 54.53308105 C-63.5625 53.8125 -63.5625 53.8125 -65.5625 51.8125 C-65.8125 48.8125 -65.8125 48.8125 -65.5625 45.8125 C-64.9025 45.1525 -64.2425 44.4925 -63.5625 43.8125 C-54.768114 43.96494873 -46.53735157 47.12641492 -38.25 49.8125 C-36.06964942 50.51059788 -33.88856051 51.20633917 -31.70722961 51.90136719 C-30.3586541 52.33197952 -29.01078459 52.7648112 -27.66374207 53.20019531 C-24.64952334 54.17107749 -21.64924085 55.10043566 -18.5625 55.8125 C-17.64233062 54.12486871 -17.64233062 54.12486871 -17.5625 51.8125 C-18.97231061 49.67276657 -20.35485995 47.81573222 -22 45.875 C-26.44088084 40.62908578 -26.44088084 40.62908578 -26.97265625 37.05859375 C-26.5625 34.8125 -26.5625 34.8125 -24.5625 32.8125 C-21.76171875 32.31640625 -21.76171875 32.31640625 -18.5625 32.8125 C-16.53353401 34.78205264 -15.01279482 36.49899027 -13.375 38.75 C-10.2330178 43.21910403 -10.2330178 43.21910403 -5.5625 45.8125 C-5.57821045 44.52561279 -5.5939209 43.23872559 -5.61010742 41.9128418 C-5.66435775 37.14386236 -5.6988323 32.37491026 -5.72729492 27.60571289 C-5.74239271 25.54056209 -5.76287274 23.4754434 -5.78881836 21.41040039 C-5.82515795 18.44409261 -5.8422163 15.47820829 -5.85546875 12.51171875 C-5.87095261 11.5866301 -5.88643646 10.66154144 -5.90238953 9.7084198 C-5.90261612 8.84775406 -5.90284271 7.98708832 -5.90307617 7.1003418 C-5.90973801 6.34311325 -5.91639984 5.5858847 -5.92326355 4.80570984 C-5.27007246 1.19684494 -3.62355988 -0.26513853 0 0 Z " fill="#513B21" transform="translate(512.5625,170.1875)"/>
<path d="M0 0 C1.625 2.26782227 1.625 2.26782227 3 5.25390625 C3.5053125 6.34719238 4.010625 7.44047852 4.53125 8.56689453 C6.84314215 13.97078871 8.96631647 19.42335922 11 24.9375 C11.70094081 26.80944324 12.40189828 28.68138031 13.10339355 30.55311584 C13.86011968 32.57498762 14.61394955 34.59792008 15.3671875 36.62109375 C18.08153347 43.90696977 20.82149225 51.1832045 23.56591797 58.45779419 C24.48576031 60.89969792 25.40125634 63.34319974 26.31640625 65.78686523 C26.8878428 67.30459178 27.45944934 68.82225434 28.03125 70.33984375 C28.28708862 71.02618896 28.54292725 71.71253418 28.80651855 72.41967773 C31.85027897 81.20721433 31.85027897 81.20721433 38.6875 86.875 C39.49574219 87.28492188 40.30398438 87.69484375 41.13671875 88.1171875 C41.75160156 88.40851563 42.36648438 88.69984375 43 89 C43.125 91.375 43.125 91.375 43 94 C40.425675 96.574325 38.69287354 96.24775746 35.18347168 96.27789307 C34.39073853 96.2738446 33.59800537 96.26979614 32.78125 96.265625 C31.96756958 96.26753845 31.15388916 96.2694519 30.31555176 96.27142334 C28.593991 96.27278527 26.87241997 96.26908828 25.15087891 96.26074219 C22.5105083 96.25004258 19.87081811 96.260637 17.23046875 96.2734375 C15.55989433 96.27211591 13.88932033 96.26955352 12.21875 96.265625 C11.02965027 96.27169769 11.02965027 96.27169769 9.81652832 96.27789307 C4.22992027 96.22992027 4.22992027 96.22992027 2 94 C1.75 91.5 1.75 91.5 2 89 C4.5654594 86.4345406 6.47686668 86.45953913 10 86 C10.44405497 79.00613417 9.53427678 74.10114203 6 68 C2.16047305 64.16047305 -4.6355178 65.58566899 -9.8125 65.5625 C-11.09705078 65.52962891 -12.38160156 65.49675781 -13.70507812 65.46289062 C-14.94322266 65.45580078 -16.18136719 65.44871094 -17.45703125 65.44140625 C-18.59116455 65.42795166 -19.72529785 65.41449707 -20.89379883 65.40063477 C-24.94203293 66.18177245 -26.4002347 67.88163171 -29 71 C-31.11649538 74.8140258 -32.99170268 79.66130077 -32 84 C-29.80167287 85.73666727 -29.80167287 85.73666727 -27 87 C-25.33333333 88 -23.66666667 89 -22 90 C-22.33 91.65 -22.66 93.3 -23 95 C-29.2775108 96.10988522 -35.44755509 96.18351444 -41.8125 96.1875 C-42.86115234 96.19974609 -43.90980469 96.21199219 -44.99023438 96.22460938 C-45.98990234 96.22654297 -46.98957031 96.22847656 -48.01953125 96.23046875 C-48.92807861 96.23457764 -49.83662598 96.23868652 -50.77270508 96.24291992 C-53 96 -53 96 -55 94 C-54.88671875 91.52734375 -54.88671875 91.52734375 -54 89 C-52.14453125 87.69140625 -52.14453125 87.69140625 -49.8125 86.5625 C-45.69592156 83.97613043 -44.07705611 81.79095013 -42.26171875 77.3046875 C-42.01828735 76.70837021 -41.77485596 76.11205292 -41.52404785 75.49766541 C-37.42364072 65.28860575 -33.75174841 54.90296708 -30 44.5625 C-27.02159249 36.36697663 -24.03191708 28.17590031 -21 20 C-20.69932617 19.18698425 -20.39865234 18.37396851 -20.08886719 17.53631592 C-19.30137942 15.42391632 -18.49848598 13.31831384 -17.6875 11.21484375 C-17.25824219 10.09070068 -16.82898438 8.96655762 -16.38671875 7.80834961 C-14.35758496 3.69899644 -12.23580725 1.5521692 -8.0625 -0.3125 C-4.75104583 -1.05588767 -3.18332417 -1.11123669 0 0 Z " fill="#523922" transform="translate(561,863)"/>
<path d="M0 0 C9.42585496 5.63020867 14.20537977 15.17699271 16.8359375 25.5546875 C18.91639647 38.61032133 18.67195987 53.36245326 11.625 64.875 C7.11423442 71.02300642 1.95438505 74.59277039 -5.625 75.9375 C-13.33607135 76.5792665 -20.32786083 76.89482233 -26.625 71.9375 C-36.31743181 63.1889005 -41.18589453 51.7208893 -41.87890625 38.83203125 C-42.30523534 26.71210434 -41.2309727 15.18442093 -33.1328125 5.51953125 C-24.69190507 -3.33686126 -11.11037513 -5.14087373 0 0 Z " fill="#FDFDFD" transform="translate(686.625,745.0625)"/>
<path d="M0 0 C1.7734375 1.125 1.7734375 1.125 3.4375 2.4375 C4.04851562 2.911875 4.65953125 3.38625 5.2890625 3.875 C12.8200328 10.54070988 16.80719295 20.96021032 17.64233398 30.86743164 C17.74101605 33.49870235 17.76666486 36.11695243 17.75 38.75 C17.74154053 40.1426709 17.74154053 40.1426709 17.73291016 41.56347656 C17.51861137 53.66181012 14.79088185 63.08411815 6.0625 71.8125 C-1.55443399 76.52774485 -8.69374305 77.55541054 -17.5625 76.4375 C-26.21977851 73.76550046 -31.53659709 68.45214548 -35.75 60.625 C-39.52539858 52.27409738 -41.0528377 44.58762415 -40.9375 35.4375 C-40.95490234 34.05691406 -40.95490234 34.05691406 -40.97265625 32.6484375 C-40.92869118 22.24336996 -38.09782735 12.66501032 -31.5625 4.4375 C-23.39906585 -2.3035176 -9.85570481 -4.55777653 0 0 Z " fill="#FDFDFD" transform="translate(403.5625,744.5625)"/>
<path d="M0 0 C0.55586628 20.10012453 -9.19565253 41.77859953 -22.8125 56.3125 C-37.35934554 70.03217197 -54.56629469 74.29150558 -74 74 C-70.84473125 67.706113 -66.67768405 63.17564902 -61.6875 58.25 C-60.892229 57.46012695 -60.09695801 56.67025391 -59.27758789 55.85644531 C-50.78646555 47.57944178 -41.67894714 40.84876298 -31.5625 34.6875 C-29.50141893 33.44613871 -29.50141893 33.44613871 -28 32 C-27.2444568 28.7412565 -27.2444568 28.7412565 -28 26 C-40.77756561 25.19437636 -52.95534334 38.03389026 -62 46 C-68.21123849 51.64526115 -73.79773519 57.64236075 -78.7578125 64.41796875 C-79.16773438 64.94003906 -79.57765625 65.46210938 -80 66 C-80.33 66 -80.66 66 -81 66 C-80.56952704 47.88100163 -74.07399836 31.56725424 -61 19 C-43.05512319 4.01537294 -22.86961169 -0.35920856 0 0 Z " fill="#ACAB77" transform="translate(697,386)"/>
<path d="M0 0 C0.67836914 0.15686279 1.35673828 0.31372559 2.05566406 0.4753418 C6.22430209 1.56451602 8.77522407 2.83916238 11.4375 6.25 C12.57827657 9.67232972 12.53565117 12.33673217 12.5 15.9375 C12.49097656 17.11699219 12.48195313 18.29648437 12.47265625 19.51171875 C12.46105469 20.41535156 12.44945312 21.31898438 12.4375 22.25 C10.2421875 23.078125 10.2421875 23.078125 7.4375 23.25 C5.0078125 21.046875 5.0078125 21.046875 2.5625 18 C-2.05965544 12.57013887 -4.92532823 9.76675228 -12.2265625 8.953125 C-18.17864191 8.66434487 -21.95691135 9.11677941 -26.5625 13.25 C-29.05371288 16.98681932 -29.17199189 19.9259021 -28.5625 24.25 C-25.75000355 31.28124113 -19.08518532 33.38603279 -12.5625 36.25 C-11.22103045 36.81482928 -9.87854419 37.37724871 -8.53515625 37.9375 C11.83325473 46.4604691 11.83325473 46.4604691 16.625 57.375 C18.86062367 65.28566836 18.6482207 73.95243777 14.76171875 81.2890625 C9.23563135 89.47223618 2.13505878 93.56432593 -7.35229492 95.83764648 C-18.56564456 97.92969857 -31.20660597 97.1186975 -41.5625 92.25 C-45.86625963 89.04327714 -47.16066001 86.33928865 -48.5625 81.25 C-48.79296875 77.85546875 -48.79296875 77.85546875 -48.75 74.4375 C-48.74355469 73.29667969 -48.73710937 72.15585937 -48.73046875 70.98046875 C-48.5625 68.25 -48.5625 68.25 -47.5625 67.25 C-44.8125 66.6875 -44.8125 66.6875 -41.5625 67.25 C-40.04100463 69.05563005 -38.98391948 70.95364463 -37.8359375 73.015625 C-34.99925239 77.99287617 -31.39061967 82.8203144 -25.8125 84.8125 C-19.2730255 86.08406449 -11.43621882 86.74173205 -5.375 83.5625 C-1.04883408 80.00543024 0.22763442 77.90269144 0.9375 72.3125 C1.12290752 68.5502724 -0.65195716 66.51689242 -3.0385437 63.73109436 C-5.50587077 61.33316194 -8.43410217 60.035496 -11.55078125 58.69921875 C-12.91094643 58.07647569 -14.27096797 57.4534188 -15.63085938 56.83007812 C-17.74709755 55.88206012 -19.8662409 54.94135101 -21.98901367 54.00805664 C-31.94892368 49.59626105 -40.18817661 45.46161464 -45.04296875 35.0859375 C-46.87413683 25.09023808 -45.97902597 16.76052575 -40.625 8.125 C-30.34257932 -3.38752622 -13.72770215 -3.30289395 0 0 Z " fill="#533A22" transform="translate(391.5625,863.75)"/>
<path d="M0 0 C4.53090555 5.0408776 4.11368232 10.42462501 4.1328125 16.890625 C4 19 4 19 3 20 C0.71484375 20.36328125 0.71484375 20.36328125 -2 20 C-4.24609375 17.91796875 -4.24609375 17.91796875 -6.4375 15.1875 C-10.42599522 10.24290754 -13.79816173 7.39206183 -20.25390625 6.6015625 C-21.89166016 6.61316406 -21.89166016 6.61316406 -23.5625 6.625 C-24.65691406 6.61726562 -25.75132812 6.60953125 -26.87890625 6.6015625 C-30.37864648 7.04833785 -32.22400771 7.84360529 -35 10 C-36.84337307 12.74544925 -37.33963362 15.09359774 -37.4375 18.375 C-37.47746094 19.10460937 -37.51742187 19.83421875 -37.55859375 20.5859375 C-36.56642125 24.87378789 -33.87413923 27.82618754 -30.22094727 30.11425781 C-28.19561412 31.13497054 -26.14891069 32.04850352 -24.0625 32.9375 C-22.54517105 33.62280886 -21.02825 34.30902147 -19.51171875 34.99609375 C-18.00811891 35.66475194 -16.50422229 36.33274327 -15 37 C2.90849932 44.97691694 2.90849932 44.97691694 7.078125 54.44921875 C9.94651874 62.96313291 9.80858135 69.44576265 6.19140625 77.67578125 C2.11582681 85.62650179 -4.51722949 90.06930539 -12.875 92.8125 C-24.98574562 95.73926353 -38.63680809 95.26963734 -50 90 C-54.30375963 86.79327714 -55.59816001 84.08928865 -57 79 C-57.23046875 75.60546875 -57.23046875 75.60546875 -57.1875 72.1875 C-57.18105469 71.04667969 -57.17460938 69.90585937 -57.16796875 68.73046875 C-57 66 -57 66 -56 65 C-53.15625 64.61328125 -53.15625 64.61328125 -50 65 C-48.09375 67.23046875 -48.09375 67.23046875 -46.5 70.1875 C-42.72567085 76.65540325 -39.27879162 80.56668303 -32 83 C-25.1212333 83.72161449 -18.98609949 83.61660177 -13 80 C-9.73111692 77.15020449 -8.69878977 74.85585305 -8.375 70.625 C-8.17436874 66.3808772 -10.10422008 63.82744812 -12.85107422 60.80224609 C-17.39616851 56.9903981 -22.98840878 54.87541737 -28.375 52.5 C-49.10948463 43.29711319 -49.10948463 43.29711319 -53.375 33.56640625 C-55.09952243 26.48508604 -55.46691338 17.20577115 -52.5 10.4375 C-48.19383987 3.64066886 -41.92397297 -0.89782951 -34.3125 -3.33984375 C-23.1389393 -5.56665007 -10.31615915 -5.21440806 0 0 Z " fill="#533A22" transform="translate(598,737)"/>
<path d="M0 0 C2.46544344 2.00148691 2.96599717 2.8979915 4 6 C4.06970052 8.39490986 4.08448003 10.79167691 4.0625 13.1875 C4.05347656 14.45980469 4.04445313 15.73210938 4.03515625 17.04296875 C4.02355469 18.01878906 4.01195312 18.99460937 4 20 C2.15625 20.59765625 2.15625 20.59765625 0 21 C-3.15618457 19.02738464 -4.8289811 17.29769958 -6.6875 14.0625 C-10.29623173 9.28336879 -15.3230113 6.68619859 -21.21875 5.5859375 C-25.82705721 5.39097066 -29.19175641 6.49002127 -33 9 C-36.25372024 11.99684759 -36.93717082 13.5052202 -37.5 17.9375 C-37.56949834 22.16821128 -35.60916953 24.78062146 -33 28 C-30.55636855 29.50862693 -28.34110651 30.70854826 -25.75 31.875 C-25.05269775 32.20814209 -24.35539551 32.54128418 -23.63696289 32.88452148 C-21.43138451 33.9380316 -19.21699825 34.97076596 -17 36 C4.25549606 45.91230532 4.25549606 45.91230532 7.9375 55.25 C10.1431506 63.36955126 9.80073695 71.02600253 6.32421875 78.7109375 C1.82714116 86.48464684 -4.91257722 90.26877628 -13.1796875 93.08203125 C-17.5874346 94.14115248 -21.60996547 94.38322494 -26.125 94.375 C-26.95523682 94.37483887 -27.78547363 94.37467773 -28.64086914 94.37451172 C-37.19560991 94.21748334 -45.55127099 92.41957921 -53 88 C-57.05678991 81.23868349 -57.46502057 74.72754768 -57 67 C-56.505 66.01 -56.505 66.01 -56 65 C-53.3125 64.5 -53.3125 64.5 -50 65 C-48.44667515 66.82583798 -47.37573926 68.73648505 -46.21484375 70.83203125 C-43.189507 76.23094411 -39.2841087 80.67463304 -33.20703125 82.5546875 C-26.20086012 83.96832203 -18.80686661 83.98751712 -12.5625 80.25390625 C-9.8644969 78.08875876 -8.93960329 76.31993161 -8 73 C-7.77251152 69.78103807 -7.7823944 67.00482069 -9 64 C-12.84357418 60.29188218 -16.66411917 57.94125133 -21.5 55.625 C-22.09949463 55.33246338 -22.69898926 55.03992676 -23.31665039 54.73852539 C-25.836223 53.50974568 -28.36501756 52.30107349 -30.89794922 51.10009766 C-49.47539506 42.27231162 -49.47539506 42.27231162 -53.3359375 33.52734375 C-55.3311054 25.93396946 -55.21876102 17.61933289 -51.9375 10.4375 C-47.69850253 3.31740119 -42.20961029 -0.73089787 -34.34765625 -3.3046875 C-22.9597788 -5.66996426 -10.61396478 -4.95097577 0 0 Z " fill="#523A22" transform="translate(514,737)"/>
<path d="M0 0 C0.69875244 0.00247742 1.39750488 0.00495483 2.11743164 0.00750732 C2.85417618 0.00239639 3.59092072 -0.00271454 4.34999084 -0.00798035 C6.79216574 -0.02191206 9.23405955 -0.0209169 11.67626953 -0.01861572 C13.37016404 -0.02250079 15.06405757 -0.02683506 16.75794983 -0.03160095 C20.31140295 -0.03907092 23.86475673 -0.03876636 27.41821289 -0.0335083 C31.97601559 -0.02771358 36.53341193 -0.04464078 41.09114742 -0.06785297 C44.59040207 -0.08257242 48.08955846 -0.08346445 51.58883858 -0.08034325 C53.26939257 -0.08085739 54.94995193 -0.08611262 56.630476 -0.09615517 C58.97926233 -0.1084675 61.32725218 -0.10175979 63.67602539 -0.09014893 C64.3727536 -0.09779266 65.06948181 -0.1054364 65.787323 -0.11331177 C68.61345577 -0.08237203 70.50341269 -0.04496864 72.84254456 1.62574768 C77.08884047 7.91206313 76.41321422 16.0325371 75.96142578 23.28216553 C74.96142578 24.28216553 74.96142578 24.28216553 72.63720703 24.64544678 C69.96142578 24.28216553 69.96142578 24.28216553 68.00439453 22.20013428 C67.39208984 21.29907959 66.77978516 20.3980249 66.14892578 19.46966553 C62.56416056 14.72354378 59.89984218 12.1906546 53.96142578 11.28216553 C50.93567331 11.04278638 47.98139011 10.9385372 44.96142578 11.28216553 C43.10818672 13.13540459 43.80456993 16.18688898 43.78442383 18.66619873 C43.77785263 19.33291595 43.77128143 19.99963318 43.76451111 20.68655396 C43.74473457 22.90201926 43.73310529 25.11741661 43.72314453 27.33294678 C43.719069 28.0882839 43.71499348 28.84362103 43.71079445 29.62184715 C43.68991401 33.62051497 43.67562153 37.61914829 43.66625977 41.61785889 C43.65519768 45.75081687 43.62080642 49.88323607 43.58108807 54.01600361 C43.55495251 57.19102485 43.54657064 60.36591725 43.54297829 63.54103661 C43.53810347 65.064492 43.52646394 66.58794131 43.50794029 68.11129189 C43.48361455 70.24461207 43.48450089 72.37653258 43.49145508 74.50994873 C43.48558884 75.72382767 43.4797226 76.9377066 43.47367859 78.18836975 C44.05867768 81.89903738 45.03686799 83.00725026 47.96142578 85.28216553 C48.86892578 85.75654053 49.77642578 86.23091553 50.71142578 86.71966553 C52.96142578 88.28216553 52.96142578 88.28216553 53.46142578 90.84466553 C52.96142578 93.28216553 52.96142578 93.28216553 49.96142578 95.28216553 C47.3826943 95.47763573 44.91470571 95.56231177 42.33642578 95.54779053 C41.59312012 95.54970398 40.84981445 95.55161743 40.08398438 95.55358887 C38.51383119 95.5549487 36.94366668 95.55126632 35.37353516 95.54290771 C32.97028345 95.53220497 30.56777924 95.54280943 28.16455078 95.55560303 C26.63850746 95.5542814 25.11246461 95.55171893 23.58642578 95.54779053 C22.8676123 95.55183899 22.14879883 95.55588745 21.40820312 95.56005859 C17.70792144 95.52528235 16.12376177 95.39038952 12.96142578 93.28216553 C12.46142578 90.84466553 12.46142578 90.84466553 12.96142578 88.28216553 C15.21142578 86.71966553 15.21142578 86.71966553 17.96142578 85.28216553 C20.88598358 83.00725026 21.86417388 81.89903738 22.44917297 78.18836975 C22.44330673 76.97449081 22.43744049 75.76061188 22.43139648 74.50994873 C22.43358688 73.83797455 22.43577728 73.16600037 22.43803406 72.47366333 C22.44033985 70.25958524 22.41412763 68.04684677 22.38720703 65.83294678 C22.38228285 64.29406659 22.37898415 62.75518041 22.37724304 61.21629333 C22.36960956 57.99578644 22.34906487 54.77572503 22.31811523 51.55535889 C22.27844092 47.41903135 22.2604902 43.28299294 22.25080585 39.14649677 C22.24085493 35.20860732 22.22095421 31.27078909 22.19970703 27.33294678 C22.19631128 26.5776449 22.19291553 25.82234303 22.18941689 25.04415321 C22.17789199 22.91808106 22.15938167 20.79219628 22.13842773 18.66619873 C22.12366142 16.84896049 22.12366142 16.84896049 22.1085968 14.99501038 C22.26883973 12.36699129 22.26883973 12.36699129 20.96142578 11.28216553 C15.40405284 10.54037176 10.71938101 11.16653959 5.80126953 13.86419678 C3.03903402 15.99305344 1.35526124 18.70842334 -0.59326172 21.56732178 C-2.03857422 23.28216553 -2.03857422 23.28216553 -5.28857422 24.40716553 C-8.03857422 24.28216553 -8.03857422 24.28216553 -10.03857422 22.28216553 C-11.05472295 15.41986241 -9.69906817 8.62829788 -7.03857422 2.28216553 C-4.6090636 -0.14734509 -3.31630478 0.036833 0 0 Z " fill="#543C24" transform="translate(431.03857421875,863.7178344726563)"/>
<path d="M0 0 C0.83729141 -0.0033284 1.67458282 -0.0066568 2.5372467 -0.01008606 C4.31185353 -0.01515881 6.08646992 -0.01749428 7.86108398 -0.01733398 C10.58267881 -0.01951922 13.30386768 -0.03766758 16.02539062 -0.05664062 C17.74609236 -0.05957467 19.46679602 -0.06155939 21.1875 -0.0625 C22.00524399 -0.06968552 22.82298798 -0.07687103 23.66551208 -0.08427429 C29.43133421 -0.06085329 29.43133421 -0.06085329 31.66015625 2.16796875 C31.78515625 4.79296875 31.78515625 4.79296875 31.66015625 7.16796875 C29.68015625 8.15796875 27.70015625 9.14796875 25.66015625 10.16796875 C25.73565216 17.77148579 30.06769044 23.00369125 34.22265625 29.10546875 C34.93357422 30.17087891 35.64449219 31.23628906 36.37695312 32.33398438 C38.12692153 34.95306461 39.88812022 37.56379096 41.66015625 40.16796875 C44.78518513 36.31657071 47.55868787 32.40386947 50.22265625 28.23046875 C50.60873047 27.63556641 50.99480469 27.04066406 51.39257812 26.42773438 C55.87554789 19.91396693 55.87554789 19.91396693 57.72265625 12.48046875 C56.19102789 9.14692467 53.96575155 8.50427323 50.66015625 7.16796875 C50.53515625 4.79296875 50.53515625 4.79296875 50.66015625 2.16796875 C52.66015625 0.16796875 52.66015625 0.16796875 55.42578125 -0.07495117 C57.15054688 -0.06878784 57.15054688 -0.06878784 58.91015625 -0.0625 C60.15796875 -0.06056641 61.40578125 -0.05863281 62.69140625 -0.05664062 C64.6559375 -0.03827148 64.6559375 -0.03827148 66.66015625 -0.01953125 C67.96984375 -0.01888672 69.27953125 -0.01824219 70.62890625 -0.01757812 C80.3797209 0.02775108 80.3797209 0.02775108 82.66015625 1.16796875 C82.78515625 4.04296875 82.78515625 4.04296875 82.66015625 7.16796875 C80.66015625 9.16796875 80.66015625 9.16796875 76.97265625 10.16796875 C73.2121383 11.53653829 71.62523755 13.14444936 69.41015625 16.453125 C68.80921143 17.34918457 68.2082666 18.24524414 67.58911133 19.16845703 C64.0962442 24.5998411 60.70387679 30.08918931 57.34765625 35.60546875 C55.9359165 37.91729184 54.52257331 40.22813029 53.109375 42.5390625 C52.49408936 43.5489624 51.87880371 44.5588623 51.24487305 45.59936523 C50.08575981 47.47812511 48.88468532 49.33117515 47.66015625 51.16796875 C47.22806574 55.59422819 47.24612352 60.02942855 47.23461914 64.47412109 C47.22269446 66.66096131 47.17348359 68.84500307 47.12304688 71.03125 C47.11358524 72.42055916 47.10634895 73.80988562 47.1015625 75.19921875 C47.08810791 76.46314453 47.07465332 77.72707031 47.06079102 79.02929688 C47.33344553 82.33685258 47.33344553 82.33685258 50.05053711 84.01757812 C50.91171143 84.39720703 51.77288574 84.77683594 52.66015625 85.16796875 C54.97265625 86.54296875 54.97265625 86.54296875 56.66015625 88.16796875 C56.97265625 90.79296875 56.97265625 90.79296875 56.66015625 93.16796875 C54.6649904 95.1631346 50.75018488 94.47086964 48.01171875 94.5546875 C47.24338715 94.58021194 46.47505554 94.60573639 45.68344116 94.6320343 C44.05434152 94.68413499 42.42515417 94.73355064 40.79589844 94.78051758 C38.30223312 94.85495897 35.80949746 94.94564015 33.31640625 95.03710938 C31.73570751 95.0856367 30.15497864 95.13319456 28.57421875 95.1796875 C27.82725739 95.2087468 27.08029602 95.23780609 26.31069946 95.26774597 C22.50604591 95.3602013 20.91412477 95.3372811 17.66015625 93.16796875 C17.16015625 90.73046875 17.16015625 90.73046875 17.66015625 88.16796875 C19.91015625 86.48046875 19.91015625 86.48046875 22.66015625 85.16796875 C23.99444812 84.50322262 25.32796349 83.8369117 26.66015625 83.16796875 C27.90509093 65.56476648 28.68266913 51.53823404 17.18701172 37.12646484 C15.15805267 34.52392095 13.39600418 31.7818624 11.61425781 29.00683594 C9.68794294 26.0200825 7.66831606 23.1002375 5.66015625 20.16796875 C5.10714844 19.32105469 4.55414062 18.47414063 3.984375 17.6015625 C1.00900123 13.24677016 -1.70804321 10.98813409 -6.60546875 8.95703125 C-8.33984375 8.16796875 -8.33984375 8.16796875 -10.33984375 6.16796875 C-9.45954872 -1.05045051 -6.46525874 0.0087765 0 0 Z " fill="#523A22" transform="translate(605.33984375,863.83203125)"/>
<path d="M0 0 C0.72397476 0.00091141 1.44794952 0.00182281 2.19386292 0.00276184 C2.93858353 -0.00152328 3.68330414 -0.00580841 4.45059204 -0.01022339 C6.02670779 -0.01596972 7.60285007 -0.01646471 9.17897034 -0.01213074 C11.59129608 -0.00897356 14.00239229 -0.03241447 16.41456604 -0.05778503 C17.94516345 -0.06005828 19.47576416 -0.0607614 21.00636292 -0.05973816 C21.72831345 -0.06894791 22.45026398 -0.07815765 23.1940918 -0.08764648 C28.17101756 -0.04165369 28.17101756 -0.04165369 30.63356018 1.67390442 C31.66651917 3.30354309 31.66651917 3.30354309 31.85401917 5.74104309 C30.4364221 8.80006834 29.56489756 9.07057172 26.59230042 10.46369934 C25.86051575 10.81182678 25.12873108 11.15995422 24.37477112 11.51863098 C23.5291864 11.90716248 23.5291864 11.90716248 22.66651917 12.30354309 C22.64339413 21.67390247 22.62560326 31.0442521 22.61470699 40.41463375 C22.60947852 44.76522768 22.60238151 49.11580216 22.59107971 53.46638489 C22.58024957 57.66144567 22.57424206 61.85648768 22.57164192 66.05156136 C22.5697879 67.65561277 22.56616772 69.25966312 22.56078911 70.86370659 C22.55357698 73.10270824 22.55252829 75.34163139 22.55299377 77.5806427 C22.54966286 79.49592018 22.54966286 79.49592018 22.54626465 81.44989014 C22.33983828 84.20243164 22.33983828 84.20243164 23.66651917 85.30354309 C38.49460469 86.68144655 38.49460469 86.68144655 51.66651917 81.30354309 C54.11197029 78.48030633 56.36989212 75.61951172 58.52589417 72.56916809 C60.66651917 70.30354309 60.66651917 70.30354309 63.36964417 69.91291809 C65.66651917 70.30354309 65.66651917 70.30354309 66.66651917 71.30354309 C67.38250297 78.74977462 65.8909347 87.75494724 61.49247742 93.95973206 C58.78119005 95.95509963 56.62122646 95.67045374 53.28321838 95.6599884 C51.96530304 95.6629895 50.6473877 95.6659906 49.28953552 95.66908264 C47.85008859 95.65707869 46.41064559 95.64459579 44.97120667 95.63166809 C43.49815564 95.62861058 42.02510174 95.6267344 40.55204773 95.62599182 C37.46688249 95.62139027 34.3819785 95.606968 31.29689026 95.58479309 C27.3342917 95.55646115 23.37189852 95.54557656 19.4092083 95.54111099 C16.36898224 95.53696325 13.32879804 95.52715203 10.28859329 95.5152359 C8.82689374 95.5095236 7.36519013 95.50476809 5.90348434 95.50096893 C3.86597543 95.49412671 1.82849663 95.47960033 -0.20896912 95.4646759 C-1.95078964 95.4544339 -1.95078964 95.4544339 -3.72779846 95.44398499 C-6.33348083 95.30354309 -6.33348083 95.30354309 -7.33348083 94.30354309 C-7.64598083 91.92854309 -7.64598083 91.92854309 -7.33348083 89.30354309 C-5.40522374 87.44415232 -3.54743719 86.40746475 -1.14598083 85.24104309 C0.84544073 84.43652148 0.84544073 84.43652148 1.66651917 82.30354309 C1.77370396 80.17030482 1.8154121 78.03367563 1.82765198 75.89778137 C1.83261688 75.24067169 1.83758179 74.58356201 1.84269714 73.90653992 C1.85732258 71.72896789 1.8641214 69.5514687 1.86964417 67.37385559 C1.87539538 65.86171974 1.88115311 64.34958392 1.88691711 62.83744812 C1.89742823 59.66484741 1.90327014 56.49227205 1.90675354 53.31965637 C1.91223808 49.25520468 1.93626447 45.19108803 1.96472549 41.12674141 C1.98335356 38.00233483 1.98855756 34.87800891 1.99008942 31.75355148 C1.99311619 30.25523421 2.00114561 28.75691836 2.0142746 27.25865555 C2.03133908 25.16154277 2.02945444 23.065248 2.02296448 20.96809387 C2.02843292 19.17844711 2.02843292 19.17844711 2.03401184 17.35264587 C1.63175757 14.01512458 1.00898457 12.66869381 -1.33348083 10.30354309 C-3.88531487 9.09904005 -3.88531487 9.09904005 -6.33348083 8.30354309 C-7.33348083 7.30354309 -7.33348083 7.30354309 -7.52098083 4.86604309 C-7.15518523 -0.13316351 -4.34930963 0.06179675 0 0 Z " fill="#513821" transform="translate(264.33348083496094,733.6964569091797)"/>
<path d="M0 0 C19.38828795 -0.49173194 19.38828795 -0.49173194 27.8125 4.75 C31.47973468 8.52201281 32.81943869 12.3147611 33.375 17.5 C32.7900699 22.95934759 31.28798175 27.15379697 27.125 30.8125 C21.45055689 34.78461018 17.05657677 35.318642 10.3125 35.25 C9.15524414 35.26160156 9.15524414 35.26160156 7.97460938 35.2734375 C2.25345092 35.25345092 2.25345092 35.25345092 0 33 C-0.17495606 30.49079154 -0.23169569 28.09375059 -0.1953125 25.5859375 C-0.1924826 24.85629791 -0.18965271 24.12665833 -0.18673706 23.37490845 C-0.17553002 21.04143972 -0.1504251 18.70835297 -0.125 16.375 C-0.11497085 14.79427637 -0.10584489 13.21354673 -0.09765625 11.6328125 C-0.07558905 7.75506086 -0.04105615 3.87759522 0 0 Z " fill="#FBFAF9" transform="translate(190,785)"/>
<path d="M0 0 C0.95003906 -0.01546875 1.90007813 -0.0309375 2.87890625 -0.046875 C6.78215129 -0.02491582 9.65112015 0.04456521 13.12109375 1.90625 C15.30021289 6.00521632 15.1180012 9.92931324 15.0625 14.5 C15.08634766 15.40234375 15.11019531 16.3046875 15.13476562 17.234375 C15.12559803 21.36590515 15.07949531 23.72695093 12.55859375 27.08984375 C8.30133259 29.05264232 4.63705844 29.12285987 0 29.0625 C-0.84175781 29.08634766 -1.68351563 29.11019531 -2.55078125 29.13476562 C-6.72328489 29.12490932 -8.97282451 28.83394514 -12.55859375 26.5625 C-15.26567921 22.29216801 -15.20215115 18.89322881 -15.0625 13.9375 C-15.07345703 13.08736328 -15.08441406 12.23722656 -15.09570312 11.36132812 C-15.05286115 7.71975997 -14.86312441 5.17378608 -13.12109375 1.94140625 C-8.89714648 -0.38145 -4.7370444 -0.07712962 0 0 Z " fill="#523A22" transform="translate(530.5,556.5)"/>
<path d="M0 0 C4.64208036 2.67812328 7.51728395 5.67685186 9.25 10.875 C9.67141936 16.3534517 8.924874 20.06022681 6.25 24.875 C2.33550568 29.13819927 -2.03532872 31.67174416 -7.828125 32.10546875 C-8.87484375 32.09128906 -9.9215625 32.07710937 -11 32.0625 C-12.05703125 32.05605469 -13.1140625 32.04960938 -14.203125 32.04296875 C-16.75 31.875 -16.75 31.875 -17.75 30.875 C-17.83783542 28.65644736 -17.85694609 26.43511504 -17.84765625 24.21484375 C-17.8462413 23.55037735 -17.84482635 22.88591095 -17.84336853 22.2013092 C-17.83775518 20.07166101 -17.82520054 17.94211661 -17.8125 15.8125 C-17.80748671 14.37174631 -17.80292351 12.93099097 -17.79882812 11.49023438 C-17.78778145 7.95178898 -17.77050792 4.41340461 -17.75 0.875 C-11.46979151 -1.73407153 -6.54956981 -1.96487094 0 0 Z " fill="#F9F8F7" transform="translate(207.75,744.125)"/>
<path d="M0 0 C0.95003906 -0.01546875 1.90007813 -0.0309375 2.87890625 -0.046875 C6.80333558 -0.02479664 9.65350178 0.03713025 13.12890625 1.9375 C15.24597224 5.89418173 15.04073095 9.58437934 14.9375 14 C14.94458984 14.85464844 14.95167969 15.70929687 14.95898438 16.58984375 C14.89641781 22.75986966 14.89641781 22.75986966 13.29907227 25.7421875 C10.90995941 28.07650865 9.58570013 28.01519785 6.28125 28.03125 C5.26675781 28.03640625 4.25226562 28.0415625 3.20703125 28.046875 C2.14871094 28.03140625 1.09039063 28.0159375 0 28 C-1.58748047 28.02320313 -1.58748047 28.02320313 -3.20703125 28.046875 C-4.72876953 28.03914062 -4.72876953 28.03914062 -6.28125 28.03125 C-7.21001953 28.02673828 -8.13878906 28.02222656 -9.09570312 28.01757812 C-11.5 27.5 -11.5 27.5 -13.29907227 25.7421875 C-15.33501318 21.94099186 -14.97257506 18.22813946 -14.9375 14 C-14.95748047 13.14535156 -14.97746094 12.29070313 -14.99804688 11.41015625 C-14.99518942 7.74689813 -14.87292571 5.19697796 -13.12890625 1.9375 C-8.89803824 -0.37596126 -4.7395217 -0.07716996 0 0 Z " fill="#513921" transform="translate(530.5,592.5)"/>
<path d="M0 0 C0.87140625 -0.00386719 1.7428125 -0.00773438 2.640625 -0.01171875 C3.54296875 -0.00011719 4.4453125 0.01148438 5.375 0.0234375 C6.72851562 0.00603516 6.72851562 0.00603516 8.109375 -0.01171875 C9.41648437 -0.00591797 9.41648437 -0.00591797 10.75 0 C11.54148437 0.00338379 12.33296875 0.00676758 13.1484375 0.01025391 C16.00097163 0.50757071 17.3486176 1.33485032 19.375 3.3984375 C19.87670898 5.61914062 19.87670898 5.61914062 19.87109375 8.1796875 C19.87173828 9.10394531 19.87238281 10.02820313 19.87304688 10.98046875 C19.85306641 11.94339844 19.83308594 12.90632812 19.8125 13.8984375 C19.81958984 14.86136719 19.82667969 15.82429687 19.83398438 16.81640625 C19.76967999 23.90967482 19.76967999 23.90967482 17.97290039 26.13476562 C14.02279335 29.25863943 9.83708298 28.65727164 5 28.7109375 C4.13632812 28.73994141 3.27265625 28.76894531 2.3828125 28.79882812 C-1.31377412 28.83590808 -3.89505014 28.78449001 -7.1953125 27.0390625 C-9.49956326 22.78312394 -9.20210281 18.59382337 -9.125 13.8359375 C-9.14046875 12.87751953 -9.1559375 11.91910156 -9.171875 10.93164062 C-9.16671875 10.01189453 -9.1615625 9.09214844 -9.15625 8.14453125 C-9.15173828 7.30591553 -9.14722656 6.4672998 -9.14257812 5.60327148 C-8.625 3.3984375 -8.625 3.3984375 -6.88085938 1.62670898 C-4.35625377 0.25211041 -2.85615811 0.01221077 0 0 Z " fill="#523A22" transform="translate(488.625,556.6015625)"/>
<path d="M0 0 C0.969375 -0.00386719 1.93875 -0.00773438 2.9375 -0.01171875 C3.948125 -0.00011719 4.95875 0.01148438 6 0.0234375 C7.010625 0.01183594 8.02125 0.00023437 9.0625 -0.01171875 C10.031875 -0.00785156 11.00125 -0.00398437 12 0 C12.886875 0.00338379 13.77375 0.00676758 14.6875 0.01025391 C17 0.3984375 17 0.3984375 18.78759766 1.62451172 C20.36350561 3.93030052 20.38729858 5.39813891 20.3984375 8.1796875 C20.40423828 9.56607422 20.40423828 9.56607422 20.41015625 10.98046875 C20.39855469 11.94339844 20.38695312 12.90632812 20.375 13.8984375 C20.38660156 14.86136719 20.39820313 15.82429687 20.41015625 16.81640625 C20.40628906 17.74066406 20.40242188 18.66492188 20.3984375 19.6171875 C20.39505371 20.46216797 20.39166992 21.30714844 20.38818359 22.17773438 C20 24.3984375 20 24.3984375 18.78759766 26.17236328 C16.4193974 27.79666015 14.85980874 27.78596367 12 27.796875 C11.030625 27.80074219 10.06125 27.80460938 9.0625 27.80859375 C8.051875 27.79699219 7.04125 27.78539062 6 27.7734375 C4.989375 27.78503906 3.97875 27.79664063 2.9375 27.80859375 C1.968125 27.80472656 0.99875 27.80085937 0 27.796875 C-0.886875 27.79349121 -1.77375 27.79010742 -2.6875 27.78662109 C-5 27.3984375 -5 27.3984375 -6.78759766 26.17236328 C-8.36350561 23.86657448 -8.38729858 22.39873609 -8.3984375 19.6171875 C-8.40230469 18.69292969 -8.40617187 17.76867187 -8.41015625 16.81640625 C-8.39855469 15.85347656 -8.38695312 14.89054688 -8.375 13.8984375 C-8.38660156 12.93550781 -8.39820313 11.97257813 -8.41015625 10.98046875 C-8.40628906 10.05621094 -8.40242188 9.13195312 -8.3984375 8.1796875 C-8.39505371 7.33470703 -8.39166992 6.48972656 -8.38818359 5.61914062 C-8 3.3984375 -8 3.3984375 -6.78759766 1.62451172 C-4.4193974 0.00021485 -2.85980874 0.01091133 0 0 Z " fill="#503921" transform="translate(488,592.6015625)"/>
<path d="M0 0 C3.43615111 2.12017834 5.80717883 4.09622164 7 8 C7.4583991 12.73679066 7.47747465 15.02668629 5.375 19.3125 C1.99659554 23.13543137 -0.9612224 24.70267827 -6 25.4375 C-10.58011061 24.7695672 -13.58764563 22.58385454 -16.640625 19.16015625 C-19.05964477 15.31613919 -18.84408692 11.36781487 -18 7 C-13.62660076 -0.64657226 -8.26884208 -1.88919063 0 0 Z " fill="#F59B7F" transform="translate(518,225)"/>
<path d="M0 0 C3 1 3 1 4.25854492 3.42089844 C4.66177979 4.4730957 5.06501465 5.52529297 5.48046875 6.609375 C5.92197266 7.75664063 6.36347656 8.90390625 6.81835938 10.0859375 C7.27017578 11.29507813 7.72199219 12.50421875 8.1875 13.75 C8.65091797 14.94367187 9.11433594 16.13734375 9.59179688 17.3671875 C13.29943165 27.13044371 13.29943165 27.13044371 13 32 C8.58314879 32.84419939 4.37034903 33.16322706 -0.125 33.1875 C-1.32382812 33.20167969 -2.52265625 33.21585938 -3.7578125 33.23046875 C-6.80284753 33.01401445 -8.45327005 32.60279273 -11 31 C-8.62712214 20.22317974 -4.2003464 10.16116505 0 0 Z " fill="#FAF9F8" transform="translate(549,887)"/>
<path d="M0 0 C1.43739513 -0.02712066 2.87493863 -0.04645067 4.3125 -0.0625 C5.51326172 -0.07990234 5.51326172 -0.07990234 6.73828125 -0.09765625 C9 0 9 0 12 1 C12 1.99 12 2.98 12 4 C12.66 4.33 13.32 4.66 14 5 C13.67 5.66 13.34 6.32 13 7 C19.435 10.465 19.435 10.465 26 14 C25.01 14.495 25.01 14.495 24 15 C22.1081543 14.3190918 22.1081543 14.3190918 19.82421875 13.19921875 C18.99599609 12.79896484 18.16777344 12.39871094 17.31445312 11.98632812 C16.44755859 11.55771484 15.58066406 11.12910156 14.6875 10.6875 C12.98370015 9.85678523 11.27929002 9.02732075 9.57421875 8.19921875 C8.77806152 7.81169434 7.9819043 7.42416992 7.16162109 7.02490234 C4.81163798 5.91069079 2.43671317 4.90937131 0 4 C0 2.68 0 1.36 0 0 Z " fill="#433116" transform="translate(570,256)"/>
<path d="M0 0 C3.03355276 3.03355276 2.35758107 6.54633063 2.4140625 10.62109375 C2.44311172 11.904645 2.44311172 11.904645 2.4727478 13.21412659 C2.53261666 15.95514889 2.57892394 18.69621452 2.625 21.4375 C2.66317937 23.28191953 2.70223108 25.12632123 2.7421875 26.97070312 C3 39.19980437 3 39.19980437 3 44 C2.01 44 1.02 44 0 44 C0 29.48 0 14.96 0 0 Z " fill="#FBB8B6" transform="translate(517,172)"/>
<path d="M0 0 C7.92 0 15.84 0 24 0 C20.61917623 3.38082377 20.61917623 3.38082377 16.875 3.3984375 C16.08609375 3.40230469 15.2971875 3.40617188 14.484375 3.41015625 C13.66453125 3.39855469 12.8446875 3.38695312 12 3.375 C10.77023437 3.39240234 10.77023437 3.39240234 9.515625 3.41015625 C8.33226562 3.40435547 8.33226562 3.40435547 7.125 3.3984375 C6.40570313 3.39505371 5.68640625 3.39166992 4.9453125 3.38818359 C3 3 3 3 0 0 Z " fill="#E7D7C1" transform="translate(482,620)"/>
<path d="M0 0 C1.15371094 -0.01417969 2.30742187 -0.02835938 3.49609375 -0.04296875 C6.5625 0.1875 6.5625 0.1875 9.5625 2.1875 C7.58130645 4.16869355 3.82804936 3.37250411 1.125 3.375 C0.08375977 3.39336914 0.08375977 3.39336914 -0.97851562 3.41210938 C-2.79970901 3.41739842 -4.6203692 3.30919207 -6.4375 3.1875 C-7.0975 2.5275 -7.7575 1.8675 -8.4375 1.1875 C-5.60362485 -0.22943757 -3.15720627 0.0175987 0 0 Z " fill="#573F2C" transform="translate(376.4375,861.8125)"/>
<path d="M0 0 C0.33 0.66 0.66 1.32 1 2 C-0.65 3.65 -2.3 5.3 -4 7 C-3.34 5.35 -2.68 3.7 -2 2 C-2.556875 2.350625 -3.11375 2.70125 -3.6875 3.0625 C-6.53886783 4.21845993 -8.08517222 3.80967438 -11 3 C-7.53968409 -0.78986981 -4.94355804 -1.43102996 0 0 Z " fill="#F5B6B5" transform="translate(495,250)"/>
<path d="M0 0 C2.97 0 5.94 0 9 0 C8.67 1.65 8.34 3.3 8 5 C2.25 5.125 2.25 5.125 0 4 C0 2.68 0 1.36 0 0 Z " fill="#4E371F" transform="translate(570,256)"/>
<path d="M0 0 C4.40172614 0.66441149 5.57322614 2.56001532 8.2109375 5.96875 C8.57445312 6.4740625 8.93796875 6.979375 9.3125 7.5 C8.9825 8.16 8.6525 8.82 8.3125 9.5 C7.91417969 9.00628906 7.51585937 8.51257813 7.10546875 8.00390625 C6.57566406 7.36324219 6.04585938 6.72257813 5.5 6.0625 C4.97792969 5.42441406 4.45585937 4.78632813 3.91796875 4.12890625 C2.30415589 2.2451725 2.30415589 2.2451725 -0.6875 1.5 C-0.97625 2.139375 -1.265 2.77875 -1.5625 3.4375 C-2.6875 5.5 -2.6875 5.5 -4.6875 6.5 C-3.64246607 0.67766811 -3.64246607 0.67766811 0 0 Z " fill="#3E2D13" transform="translate(490.6875,202.5)"/>
<path d="M0 0 C0.99 0 1.98 0 3 0 C3 3.96 3 7.92 3 12 C2.01 12.495 2.01 12.495 1 13 C-0.00496852 9.98509443 -0.10335303 7.95818308 -0.0625 4.8125 C-0.05347656 3.91144531 -0.04445313 3.01039063 -0.03515625 2.08203125 C-0.02355469 1.39496094 -0.01195312 0.70789063 0 0 Z " fill="#59402B" transform="translate(337,210)"/>
<path d="M0 0 C0.33 0.99 0.66 1.98 1 3 C0.04504326 4.69287785 -0.9590934 6.35857037 -2 8 C-2.165 8.70125 -2.33 9.4025 -2.5 10.125 C-3.13012362 12.48796357 -4.18505847 13.40285145 -6 15 C-6.66 15.66 -7.32 16.32 -8 17 C-7.41734728 12.57676318 -5.73233789 9.4844136 -3.4375 5.6875 C-2.79683594 4.61886719 -2.15617188 3.55023437 -1.49609375 2.44921875 C-1.00238281 1.64097656 -0.50867188 0.83273437 0 0 Z " fill="#432816" transform="translate(764,533)"/>
<path d="M0 0 C6.02658524 1.68183774 10.78821295 4.46858897 14 10 C13.67 10.99 13.34 11.98 13 13 C12.34644531 12.20335937 12.34644531 12.20335937 11.6796875 11.390625 C8.07207116 7.11146102 4.77040209 3.90878176 0 1 C0 0.67 0 0.34 0 0 Z " fill="#4A3120" transform="translate(401,743)"/>
<path d="M0 0 C2.97 0 5.94 0 9 0 C9.33 0.66 9.66 1.32 10 2 C6.78548731 3.60725635 3.56387464 3.05748185 0 3 C0 2.01 0 1.02 0 0 Z " fill="#573F2D" transform="translate(370,586)"/>
<path d="M0 0 C4.29 0 8.58 0 13 0 C8.09396701 3.67952474 6.82490317 3.29124516 1 3 C0.67 2.01 0.34 1.02 0 0 Z " fill="#5A4027" transform="translate(612,267)"/>
<path d="M0 0 C0.33 0 0.66 0 1 0 C1 3.3 1 6.6 1 10 C0.01 10.33 -0.98 10.66 -2 11 C-2.05399736 9.54207116 -2.09279177 8.08357288 -2.125 6.625 C-2.15980469 5.40683594 -2.15980469 5.40683594 -2.1953125 4.1640625 C-2 2 -2 2 0 0 Z " fill="#634C34" transform="translate(607,454)"/>
<path d="M0 0 C0 1.65 0 3.3 0 5 C-1.98 5.99 -1.98 5.99 -4 7 C-5.125 3.25 -5.125 3.25 -4 1 C-1 0 -1 0 0 0 Z " fill="#462E1B" transform="translate(688,866)"/>
<path d="M0 0 C0.66 0.99 1.32 1.98 2 3 C1.38125 3.391875 0.7625 3.78375 0.125 4.1875 C-2.32496368 6.27717491 -3.01879998 7.97463327 -4 11 C-5 8 -5 8 -4.2578125 6.2109375 C-1.11111111 1.11111111 -1.11111111 1.11111111 0 0 Z " fill="#3E2412" transform="translate(357,153)"/>
<path d="M0 0 C0.99 0.33 1.98 0.66 3 1 C3 2.32 3 3.64 3 5 C0.03 5 -2.94 5 -6 5 C-6 4.67 -6 4.34 -6 4 C-4.02 4 -2.04 4 0 4 C0 2.68 0 1.36 0 0 Z " fill="#5B432A" transform="translate(600,952)"/>
<path d="M0 0 C3.3 0 6.6 0 10 0 C5.577168 3.317124 4.28089024 3.30466674 -1 3 C-0.67 2.01 -0.34 1.02 0 0 Z " fill="#5A422C" transform="translate(372,950)"/>
<path d="M0 0 C2.875 -0.125 2.875 -0.125 6 0 C6.66 0.66 7.32 1.32 8 2 C7.01 3.485 7.01 3.485 6 5 C6 4.34 6 3.68 6 3 C4.35 3 2.7 3 1 3 C0.67 2.01 0.34 1.02 0 0 Z " fill="#5D4531" transform="translate(680,864)"/>
<path d="M0 0 C-0.33 0.66 -0.66 1.32 -1 2 C-3.64 1.67 -6.28 1.34 -9 1 C-5.64919071 -1.10976881 -3.77897651 -1.0497157 0 0 Z " fill="#58402A" transform="translate(488,734)"/>
<path d="M0 0 C0.33 0.66 0.66 1.32 1 2 C-0.79987679 6.54705717 -1.48882064 7.74441032 -6 10 C-4.02 6.7 -2.04 3.4 0 0 Z " fill="#443016" transform="translate(634,345)"/>
<path d="M0 0 C0.99 0.33 1.98 0.66 3 1 C1.6875 3 1.6875 3 0 5 C-0.99 5 -1.98 5 -3 5 C-1.125 1.125 -1.125 1.125 0 0 Z " fill="#4D331D" transform="translate(483,593)"/>
<path d="M0 0 C2.97 0 5.94 0 9 0 C5.81237635 2.12508244 3.73487777 2.5020163 0 3 C0 2.01 0 1.02 0 0 Z " fill="#61462E" transform="translate(508,436)"/>
</svg>
